<svg xmlns="http://www.w3.org/2000/svg" viewBox="0 0 104.9 105.02"><defs><style>.cls-1{fill:#3e5668;}.cls-2{fill:#51a7f9;}</style></defs><title>Asset 46</title><g id="Layer_2" data-name="Layer 2"><g id="Layer_1-2" data-name="Layer 1"><path class="cls-1" d="M34.06,38.81a9.14,9.14,0,1,0-9.14-9.14A9.15,9.15,0,0,0,34.06,38.81Zm0-16.2A7.06,7.06,0,1,1,27,29.67,7.06,7.06,0,0,1,34.06,22.61Z"/><path class="cls-1" d="M72.92,38.81a9.14,9.14,0,1,0-9.14-9.14A9.15,9.15,0,0,0,72.92,38.81Zm0-16.2a7.06,7.06,0,1,1-7,7.06A7.07,7.07,0,0,1,72.92,22.61Z"/><path class="cls-1" d="M33.88,40.26A10.25,10.25,0,0,0,23.64,50.5V67.14a1,1,0,0,0,1.05,1h3.47V83.46a1,1,0,0,0,1,1h9.71a1,1,0,0,0,1-1V68.18h3.13a1,1,0,0,0,1-1V50.5A10.25,10.25,0,0,0,33.88,40.26ZM42,66.1H38.91a1,1,0,0,0-1,1V82.41H30.24V67.14a1,1,0,0,0-1-1H25.73V50.5A8.16,8.16,0,1,1,42,50.5Z"/><path class="cls-1" d="M87.51,71.12l-5.2-11.71V50.27a9.39,9.39,0,0,0-18.77,0v9.14L58.33,71.12a1.06,1.06,0,0,0,.08,1,1,1,0,0,0,.87.47H67V83.46a1,1,0,0,0,1,1h9.72a1,1,0,0,0,1-1V72.58h7.74a1,1,0,0,0,.87-.47A1,1,0,0,0,87.51,71.12Zm-9.73-.62a1,1,0,0,0-1,1V82.41H69.1V71.54a1,1,0,0,0-1-1H60.88l4.65-10.45a1,1,0,0,0,.09-.42V50.27a7.3,7.3,0,1,1,14.6,0v9.36a1,1,0,0,0,.09.42L85,70.5Z"/><path class="cls-2" d="M92.7,94.38H12.18a1.55,1.55,0,0,1-1.54-1.54v-34a1.54,1.54,0,0,1,3.08,0V91.16H91V58.81a1.54,1.54,0,1,1,3.08,0v34A1.36,1.36,0,0,1,92.7,94.38Z"/><path class="cls-2" d="M92.7,47.89a1.55,1.55,0,0,1-1.54-1.54V13.86H13.72V46.21a1.54,1.54,0,0,1-3.08,0V10.64H94.38V46.21A1.8,1.8,0,0,1,92.7,47.89Z"/><path class="cls-1" d="M32.91,105H1.54A1.55,1.55,0,0,1,0,103.48V72a1.55,1.55,0,0,1,1.54-1.54A1.55,1.55,0,0,1,3.08,72V101.8H32.91a1.55,1.55,0,0,1,1.54,1.54A1.44,1.44,0,0,1,32.91,105Z"/><path class="cls-1" d="M103.34,105H71.83a1.54,1.54,0,1,1,0-3.08h29.83V72a1.54,1.54,0,0,1,3.08,0v31.51C105,104.32,104.18,105,103.34,105Z"/><path class="cls-1" d="M1.54,34.73A1.55,1.55,0,0,1,0,33.19V1.54A1.55,1.55,0,0,1,1.54,0,1.55,1.55,0,0,1,3.08,1.54V33.05A1.59,1.59,0,0,1,1.54,34.73Z"/><path class="cls-1" d="M32.91,3.22H1.54A1.55,1.55,0,0,1,0,1.68,1.55,1.55,0,0,1,1.54.14H32.91a1.55,1.55,0,0,1,1.54,1.54A1.4,1.4,0,0,1,32.91,3.22Z"/><path class="cls-1" d="M103.34,34.73a1.55,1.55,0,0,1-1.54-1.54V1.54a1.54,1.54,0,1,1,3.08,0V33.05A1.51,1.51,0,0,1,103.34,34.73Z"/><path class="cls-1" d="M103.34,3.22H71.83a1.55,1.55,0,0,1-1.54-1.54A1.55,1.55,0,0,1,71.83.14h31.51a1.55,1.55,0,0,1,1.54,1.54A1.47,1.47,0,0,1,103.34,3.22Z"/><path class="cls-2" d="M101.8,54.19h-12a1.54,1.54,0,0,1,0-3.08h12a1.55,1.55,0,0,1,1.54,1.54A1.4,1.4,0,0,1,101.8,54.19Z"/><path class="cls-2" d="M15,54.19h-12a1.54,1.54,0,0,1,0-3.08H15a1.54,1.54,0,0,1,0,3.08Z"/></g></g></svg>