<svg width="102" height="102" viewBox="0 0 102 102" fill="none" xmlns="http://www.w3.org/2000/svg">
<path d="M75.4186 94.793C75.2075 94.7933 74.999 94.7455 74.809 94.6532C74.6191 94.561 74.4526 94.4268 74.3221 94.2607L67.6547 85.7883H51C50.6301 85.7883 50.2754 85.6414 50.0139 85.3799C49.7524 85.1184 49.6055 84.7637 49.6055 84.3938C49.6055 84.0239 49.7524 83.6692 50.0139 83.4077C50.2754 83.1462 50.6301 82.9993 51 82.9993H68.332C68.543 82.9993 68.7513 83.0473 68.9411 83.1395C69.1309 83.2317 69.2973 83.3657 69.4277 83.5316L76.5135 92.5363C76.6753 92.7419 76.776 92.989 76.804 93.2492C76.8321 93.5093 76.7863 93.7722 76.672 94.0076C76.5577 94.243 76.3795 94.4415 76.1577 94.5804C75.9359 94.7193 75.6795 94.793 75.4178 94.793H75.4186Z" fill="#06DAF7"/>
<path d="M68.332 74.6321H51C50.6301 74.6321 50.2754 74.4852 50.0139 74.2236C49.7524 73.9621 49.6055 73.6074 49.6055 73.2375C49.6055 72.8677 49.7524 72.513 50.0139 72.2515C50.2754 71.9899 50.6301 71.843 51 71.843H68.332C68.7019 71.843 69.0566 71.9899 69.3181 72.2515C69.5796 72.513 69.7266 72.8677 69.7266 73.2375C69.7266 73.6074 69.5796 73.9621 69.3181 74.2236C69.0566 74.4852 68.7019 74.6321 68.332 74.6321Z" fill="#06DAF7"/>
<path d="M77.0969 63.4758H51C50.6301 63.4758 50.2754 63.3289 50.0139 63.0674C49.7524 62.8059 49.6055 62.4512 49.6055 62.0813C49.6055 61.7114 49.7524 61.3567 50.0139 61.0952C50.2754 60.8337 50.6301 60.6868 51 60.6868H77.0969C77.4667 60.6868 77.8214 60.8337 78.0829 61.0952C78.3445 61.3567 78.4914 61.7114 78.4914 62.0813C78.4914 62.4512 78.3445 62.8059 78.0829 63.0674C77.8214 63.3289 77.4667 63.4758 77.0969 63.4758Z" fill="#06DAF7"/>
<path d="M61.9523 52.3196H51C50.6301 52.3196 50.2754 52.1727 50.0139 51.9111C49.7524 51.6496 49.6055 51.2949 49.6055 50.9251C49.6055 50.5552 49.7524 50.2005 50.0139 49.939C50.2754 49.6774 50.6301 49.5305 51 49.5305H61.9523C62.3221 49.5305 62.6768 49.6774 62.9383 49.939C63.1999 50.2005 63.3468 50.5552 63.3468 50.9251C63.3468 51.2949 63.1999 51.6496 62.9383 51.9111C62.6768 52.1727 62.3221 52.3196 61.9523 52.3196Z" fill="#06DAF7"/>
<path d="M93.5491 60.1053C93.366 60.1055 93.1846 60.0694 93.0155 59.9993C92.8463 59.9291 92.6927 59.8262 92.5634 59.6965L74.0297 41.1636H51C50.6301 41.1636 50.2754 41.0167 50.0139 40.7551C49.7524 40.4936 49.6055 40.1389 49.6055 39.769C49.6055 39.3992 49.7524 39.0445 50.0139 38.783C50.2754 38.5214 50.6301 38.3745 51 38.3745H74.6074C74.9772 38.3747 75.3318 38.5217 75.5932 38.7833L94.5349 57.725C94.7298 57.9201 94.8625 58.1685 94.9162 58.4389C94.97 58.7093 94.9424 58.9896 94.8369 59.2443C94.7314 59.4991 94.5527 59.7168 94.3235 59.8701C94.0943 60.0233 93.8249 60.1052 93.5491 60.1053Z" fill="#06DAF7"/>
<path d="M92.3379 29.7417H51C50.6301 29.7417 50.2754 29.5948 50.0139 29.3332C49.7524 29.0717 49.6055 28.717 49.6055 28.3472C49.6055 27.9773 49.7524 27.6226 50.0139 27.3611C50.2754 27.0996 50.6301 26.9526 51 26.9526H92.3379C92.7077 26.9526 93.0624 27.0996 93.324 27.3611C93.5855 27.6226 93.7324 27.9773 93.7324 28.3472C93.7324 28.717 93.5855 29.0717 93.324 29.3332C93.0624 29.5948 92.7077 29.7417 92.3379 29.7417Z" fill="#06DAF7"/>
<path d="M74.6074 20.711H51C50.6301 20.711 50.2754 20.5641 50.0139 20.3026C49.7524 20.0411 49.6055 19.6864 49.6055 19.3165C49.6055 18.9467 49.7524 18.592 50.0139 18.3304C50.2754 18.0689 50.6301 17.922 51 17.922H74.0297L80.4119 11.5398C80.6734 11.2783 81.0281 11.1313 81.398 11.1313C81.7679 11.1313 82.1226 11.2783 82.3841 11.5398C82.6457 11.8014 82.7926 12.1561 82.7926 12.5259C82.7926 12.8958 82.6457 13.2505 82.3841 13.5121L75.594 20.3023C75.4644 20.4319 75.3106 20.5347 75.1414 20.6048C74.9721 20.675 74.7907 20.7111 74.6074 20.711Z" fill="#06DAF7"/>
<path d="M36.5064 1.31982C32.6626 1.32004 28.9763 2.84712 26.2584 5.56517C23.5405 8.28322 22.0137 11.9696 22.0137 15.8134V15.8469C19.9746 15.9511 17.9932 16.5598 16.2474 17.6185C14.5015 18.6772 13.0458 20.1527 12.0108 21.9127C10.9757 23.6727 10.3938 25.662 10.3171 27.7024C10.2404 29.7427 10.6714 31.7701 11.5714 33.6028C8.51364 35.5073 5.98087 38.1465 4.20375 41.28C2.42663 44.4135 1.46162 47.9418 1.39659 51.5436C1.33157 55.1454 2.16859 58.7062 3.83144 61.9018C5.49429 65.0974 7.93014 67.8263 10.9172 69.8399C10.3285 71.6422 10.1628 73.5558 10.4329 75.4325C10.703 77.3091 11.4016 79.0984 12.4747 80.6615C13.5478 82.2246 14.9664 83.5195 16.6206 84.446C18.2749 85.3724 20.1202 85.9054 22.0137 86.0037V86.0372C21.9995 87.9495 22.3639 89.8457 23.0859 91.6166C23.8079 93.3874 24.8732 94.9978 26.2204 96.3551C27.5676 97.7123 29.1701 98.7896 30.9356 99.5247C32.701 100.26 34.5945 100.638 36.5068 100.638C38.4192 100.638 40.3126 100.26 42.0781 99.5247C43.8435 98.7896 45.446 97.7123 46.7932 96.3551C48.1405 94.9978 49.2058 93.3874 49.9278 91.6166C50.6498 89.8457 51.0142 87.9495 51 86.0372V15.8134C51 11.9695 49.473 8.28296 46.7549 5.56489C44.0368 2.84682 40.3504 1.31982 36.5064 1.31982Z" fill="#FF6CA8"/>
<path d="M8.882 53.3247C8.51214 53.3247 8.15744 53.1778 7.89591 52.9163C7.63439 52.6548 7.48746 52.3001 7.48746 51.9302C7.49211 47.8199 9.12696 43.8793 12.0334 40.9729C14.9398 38.0665 18.8804 36.4316 22.9907 36.427C23.3605 36.427 23.7152 36.5739 23.9767 36.8354C24.2383 37.097 24.3852 37.4517 24.3852 37.8215C24.3852 38.1914 24.2383 38.5461 23.9767 38.8076C23.7152 39.0691 23.3605 39.2161 22.9907 39.2161C19.6204 39.2207 16.3895 40.5618 14.0067 42.9453C11.6238 45.3287 10.2835 48.5599 10.2797 51.9302C10.2797 52.1136 10.2435 52.2952 10.1733 52.4646C10.103 52.634 9.99997 52.7879 9.87014 52.9174C9.74031 53.047 9.5862 53.1496 9.41664 53.2195C9.24708 53.2894 9.0654 53.3252 8.882 53.3247Z" fill="#EF4A8A"/>
<path d="M43.2058 17.5139C42.8359 17.5139 42.4812 17.3669 42.2197 17.1054C41.9582 16.8439 41.8113 16.4892 41.8113 16.1193C41.8113 15.4228 41.6741 14.7331 41.4075 14.0896C41.141 13.4461 40.7503 12.8614 40.2578 12.3688C39.7652 11.8763 39.1805 11.4856 38.537 11.2191C37.8935 10.9525 37.2038 10.8153 36.5073 10.8153C35.8107 10.8153 35.121 10.9525 34.4775 11.2191C33.834 11.4856 33.2493 11.8763 32.7568 12.3688C32.2642 12.8614 31.8736 13.4461 31.607 14.0896C31.3405 14.7331 31.2033 15.4228 31.2033 16.1193C31.2033 16.4892 31.0563 16.8439 30.7948 17.1054C30.5333 17.3669 30.1786 17.5139 29.8087 17.5139C29.4389 17.5139 29.0842 17.3669 28.8226 17.1054C28.5611 16.8439 28.4142 16.4892 28.4142 16.1193C28.4142 13.9728 29.2669 11.9142 30.7847 10.3964C32.3025 8.87858 34.3611 8.02588 36.5077 8.02588C38.6542 8.02588 40.7128 8.87858 42.2306 10.3964C43.7484 11.9142 44.6011 13.9728 44.6011 16.1193C44.6011 16.3025 44.565 16.4839 44.4949 16.6532C44.4248 16.8224 44.322 16.9762 44.1924 17.1057C44.0628 17.2352 43.909 17.3379 43.7397 17.4079C43.5704 17.478 43.389 17.514 43.2058 17.5139Z" fill="#EF4A8A"/>
<path d="M29.1871 49.4312C28.8173 49.4312 28.4626 49.2842 28.2011 49.0227C27.9395 48.7612 27.7926 48.4065 27.7926 48.0366C27.7926 47.6668 27.9395 47.3121 28.2011 47.0505C28.4626 46.789 28.8173 46.6421 29.1871 46.6421C31.006 46.6402 32.7499 45.9168 34.036 44.6307C35.3222 43.3445 36.0455 41.6007 36.0474 39.7818V35.2739C36.0455 33.455 35.3222 31.7112 34.036 30.425C32.7499 29.1389 31.006 28.4155 29.1871 28.4136H28.5895C28.2196 28.4136 27.8649 28.2667 27.6034 28.0051C27.3419 27.7436 27.195 27.3889 27.195 27.019C27.195 26.6492 27.3419 26.2945 27.6034 26.033C27.8649 25.7714 28.2196 25.6245 28.5895 25.6245H29.1871C31.7454 25.6275 34.198 26.645 36.007 28.454C37.816 30.263 38.8336 32.7156 38.8365 35.2739V39.7818C38.8336 42.3401 37.816 44.7927 36.007 46.6017C34.198 48.4106 31.7454 49.4282 29.1871 49.4312Z" fill="#EF4A8A"/>
<path d="M37.4531 63.4758H29.4844C26.6058 63.4725 23.8462 62.3275 21.8107 60.292C19.7753 58.2566 18.6303 55.4969 18.627 52.6184C18.627 52.2486 18.7739 51.8939 19.0354 51.6323C19.2969 51.3708 19.6516 51.2239 20.0215 51.2239C20.3913 51.2239 20.746 51.3708 21.0076 51.6323C21.2691 51.8939 21.416 52.2486 21.416 52.6184C21.4183 54.7576 22.2691 56.8084 23.7817 58.321C25.2944 59.8336 27.3452 60.6844 29.4844 60.6868H37.4531C37.823 60.6868 38.1777 60.8337 38.4392 61.0952C38.7007 61.3567 38.8477 61.7114 38.8477 62.0813C38.8477 62.4512 38.7007 62.8059 38.4392 63.0674C38.1777 63.3289 37.823 63.4758 37.4531 63.4758Z" fill="#EF4A8A"/>
<path d="M42.5332 82.8C39.1529 82.7963 35.9121 81.4517 33.5218 79.0615C31.1315 76.6712 29.787 73.4304 29.7832 70.05C29.7832 69.6802 29.9301 69.3255 30.1917 69.064C30.4532 68.8024 30.8079 68.6555 31.1777 68.6555C31.5476 68.6555 31.9023 68.8024 32.1638 69.064C32.4253 69.3255 32.5723 69.6802 32.5723 70.05C32.5752 72.6909 33.6256 75.2228 35.493 77.0902C37.3604 78.9576 39.8923 80.008 42.5332 80.011C42.9031 80.011 43.2578 80.1579 43.5193 80.4194C43.7808 80.681 43.9277 81.0357 43.9277 81.4055C43.9277 81.7754 43.7808 82.1301 43.5193 82.3916C43.2578 82.6531 42.9031 82.8 42.5332 82.8Z" fill="#EF4A8A"/>
<path d="M22.542 79.8817C22.4724 79.8816 22.4029 79.8765 22.334 79.8665C20.4851 79.5874 18.8223 78.5863 17.7104 77.0829C16.5985 75.5794 16.1283 73.6964 16.4029 71.8468C16.4279 71.6638 16.4889 71.4876 16.5826 71.3284C16.6762 71.1692 16.8005 71.0302 16.9483 70.9195C17.0961 70.8087 17.2644 70.7284 17.4434 70.6832C17.6225 70.6381 17.8088 70.6289 17.9914 70.6563C18.174 70.6837 18.3494 70.7471 18.5073 70.8428C18.6653 70.9385 18.8026 71.0646 18.9114 71.2139C19.0202 71.3631 19.0983 71.5324 19.1411 71.7121C19.1839 71.8917 19.1906 72.0781 19.1609 72.2603C18.995 73.3784 19.2794 74.5167 19.9517 75.4254C20.6239 76.3341 21.6291 76.9391 22.7468 77.1077C23.095 77.1595 23.4108 77.341 23.6308 77.6159C23.8507 77.8908 23.9585 78.2387 23.9326 78.5898C23.9067 78.9409 23.7489 79.2692 23.491 79.5088C23.2331 79.7484 22.8941 79.8816 22.542 79.8817Z" fill="#EF4A8A"/>
<path d="M36.8555 94.624C34.5315 94.6215 32.3034 93.6972 30.66 92.0538C29.0167 90.4105 28.0924 88.1824 28.0898 85.8584C28.0898 85.4885 28.2368 85.1338 28.4983 84.8723C28.7598 84.6108 29.1145 84.4639 29.4844 84.4639C29.8542 84.4639 30.2089 84.6108 30.4705 84.8723C30.732 85.1338 30.8789 85.4885 30.8789 85.8584C30.8806 87.443 31.5108 88.9621 32.6313 90.0826C33.7517 91.2031 35.2709 91.8333 36.8555 91.835C37.2253 91.835 37.58 91.9819 37.8416 92.2434C38.1031 92.5049 38.25 92.8596 38.25 93.2295C38.25 93.5993 38.1031 93.954 37.8416 94.2156C37.58 94.4771 37.2253 94.624 36.8555 94.624Z" fill="#EF4A8A"/>
<path d="M72.4655 77.3721C74.7487 77.3721 76.5997 75.5212 76.5997 73.2379C76.5997 70.9547 74.7487 69.1038 72.4655 69.1038C70.1822 69.1038 68.3313 70.9547 68.3313 73.2379C68.3313 75.5212 70.1822 77.3721 72.4655 77.3721Z" fill="#284CB2"/>
<path d="M78.0938 100.68C80.3766 100.68 82.2271 98.829 82.2271 96.5462C82.2271 94.2634 80.3766 92.4128 78.0938 92.4128C75.8109 92.4128 73.9604 94.2634 73.9604 96.5462C73.9604 98.829 75.8109 100.68 78.0938 100.68Z" fill="#284CB2"/>
<path d="M81.231 66.2148C83.5139 66.2148 85.3644 64.3642 85.3644 62.0814C85.3644 59.7986 83.5139 57.948 81.231 57.948C78.9482 57.948 77.0977 59.7986 77.0977 62.0814C77.0977 64.3642 78.9482 66.2148 81.231 66.2148Z" fill="#284CB2"/>
<path d="M96.4713 65.7679C98.7546 65.7679 100.606 63.9169 100.606 61.6337C100.606 59.3505 98.7546 57.4995 96.4713 57.4995C94.1881 57.4995 92.3372 59.3505 92.3372 61.6337C92.3372 63.9169 94.1881 65.7679 96.4713 65.7679Z" fill="#284CB2"/>
<path d="M92.3379 45.6459C94.6207 45.6459 96.4713 43.7953 96.4713 41.5125C96.4713 39.2297 94.6207 37.3792 92.3379 37.3792C90.0551 37.3792 88.2045 39.2297 88.2045 41.5125C88.2045 43.7953 90.0551 45.6459 92.3379 45.6459Z" fill="#284CB2"/>
<path d="M92.3379 83.5373C94.6207 83.5373 96.4713 81.6867 96.4713 79.4039C96.4713 77.1211 94.6207 75.2705 92.3379 75.2705C90.0551 75.2705 88.2045 77.1211 88.2045 79.4039C88.2045 81.6867 90.0551 83.5373 92.3379 83.5373Z" fill="#284CB2"/>
<path d="M96.4713 32.4818C98.7546 32.4818 100.606 30.6308 100.606 28.3476C100.606 26.0643 98.7546 24.2134 96.4713 24.2134C94.1881 24.2134 92.3372 26.0643 92.3372 28.3476C92.3372 30.6308 94.1881 32.4818 96.4713 32.4818Z" fill="#284CB2"/>
<path d="M84.1198 13.555C86.403 13.555 88.254 11.7041 88.254 9.42081C88.254 7.13756 86.403 5.28662 84.1198 5.28662C81.8365 5.28662 79.9856 7.13756 79.9856 9.42081C79.9856 11.7041 81.8365 13.555 84.1198 13.555Z" fill="#284CB2"/>
<path d="M66.0856 54.9262C68.3684 54.9262 70.219 53.0756 70.219 50.7928C70.219 48.51 68.3684 46.6594 66.0856 46.6594C63.8028 46.6594 61.9523 48.51 61.9523 50.7928C61.9523 53.0756 63.8028 54.9262 66.0856 54.9262Z" fill="#284CB2"/>
</svg>
