<svg width="85" height="85" viewBox="0 0 85 85" fill="none" xmlns="http://www.w3.org/2000/svg">
<path d="M74.541 49.6957V8.70483H0V77.1126H55.0035L74.541 49.6957Z" fill="#CBE8F8"/>
<path d="M25.5543 33.475H11.0478V47.9815H25.5543V33.475Z" fill="#22B8F9"/>
<path d="M45.0418 33.475H30.5354V47.9815H45.0418V33.475Z" fill="#22B8F9"/>
<path d="M64.5293 33.475H50.0229V47.9815H64.5293V33.475Z" fill="#22B8F9"/>
<path d="M54.0864 53.0402H10.9648V58.0206H54.0864V53.0402Z" fill="#0082FF"/>
<path d="M51.4878 62.6697H10.9648V67.6501H51.4878V62.6697Z" fill="#0082FF"/>
<path d="M37.8516 8.70483V77.1126H55.0035L74.541 49.6957V8.70483H37.8516Z" fill="#B2DCFD"/>
<path d="M45.0419 33.475H37.8516V47.9815H45.0419V33.475Z" fill="#0082FF"/>
<path d="M64.5293 33.475H50.0229V47.9815H64.5293V33.475Z" fill="#0082FF"/>
<path d="M54.0864 53.0402H37.8516V58.0206H54.0864V53.0402Z" fill="#00317E"/>
<path d="M51.4878 62.6697H37.8516V67.6501H51.4878V62.6697Z" fill="#00317E"/>
<path d="M66.996 46.1711C57.0686 46.1711 48.9921 54.2476 48.9921 64.1751C48.9921 74.1025 57.0686 82.179 66.996 82.179C76.9234 82.179 85 74.1025 85 64.1751C85 54.2476 76.9235 46.1711 66.996 46.1711Z" fill="#8CD95B"/>
<path d="M66.9959 46.1711V82.179C76.9233 82.179 85 74.1025 85 64.1751C85 54.2476 76.9235 46.1711 66.9959 46.1711Z" fill="#61C27C"/>
<path d="M64.5791 71.2599L57.595 64.2758L61.1167 60.7541L64.5791 64.2163L71.956 56.8396L75.4777 60.3613L64.5791 71.2599Z" fill="white"/>
<path d="M66.9959 68.843L75.4777 60.3613L71.956 56.8396L66.9959 61.7995V68.843Z" fill="#CBE8F8"/>
<path d="M74.541 8.70483H0V26.2278H74.541V8.70483Z" fill="#FE5957"/>
<path d="M74.541 8.70483H37.8516V26.2278H74.541V8.70483Z" fill="#FC1D5A"/>
<path d="M15.4401 2.82092H10.4596V19.0068H15.4401V2.82092Z" fill="#FFDA2D"/>
<path d="M25.4017 2.82092H20.4212V19.0068H25.4017V2.82092Z" fill="#FFDA2D"/>
<path d="M35.3632 2.82092H30.3827V19.0068H35.3632V2.82092Z" fill="#FFDA2D"/>
<path d="M45.3248 2.82092H40.3443V19.0068H45.3248V2.82092Z" fill="#FFDA2D"/>
<path d="M55.2863 2.82092H50.3059V19.0068H55.2863V2.82092Z" fill="#FFDA2D"/>
<path d="M65.2478 2.82092H60.2673V19.0068H65.2478V2.82092Z" fill="#FFDA2D"/>
<path d="M45.3248 2.82092H40.3443V19.0068H45.3248V2.82092Z" fill="#FDBF00"/>
<path d="M55.2863 2.82092H50.3059V19.0068H55.2863V2.82092Z" fill="#FDBF00"/>
<path d="M65.2478 2.82092H60.2673V19.0068H65.2478V2.82092Z" fill="#FDBF00"/>
</svg>
