<svg width="36" height="36" viewBox="0 0 36 36" fill="none" xmlns="http://www.w3.org/2000/svg">
<path d="M11.88 20.2045C13.995 20.2045 15.69 21.916 15.69 24.046V29.1595C15.69 31.2745 13.995 32.9995 11.88 32.9995H6.81C4.71 32.9995 3 31.2745 3 29.1595V24.046C3 21.916 4.71 20.2045 6.81 20.2045H11.88ZM29.1901 20.2045C31.2901 20.2045 33.0001 21.916 33.0001 24.046V29.1595C33.0001 31.2745 31.2901 32.9995 29.1901 32.9995H24.1201C22.0051 32.9995 20.3101 31.2745 20.3101 29.1595V24.046C20.3101 21.916 22.0051 20.2045 24.1201 20.2045H29.1901ZM11.88 3C13.995 3 15.69 4.725 15.69 6.8415V11.955C15.69 14.085 13.995 15.795 11.88 15.795H6.81C4.71 15.795 3 14.085 3 11.955V6.8415C3 4.725 4.71 3 6.81 3H11.88ZM29.1901 3C31.2901 3 33.0001 4.725 33.0001 6.8415V11.955C33.0001 14.085 31.2901 15.795 29.1901 15.795H24.1201C22.0051 15.795 20.3101 14.085 20.3101 11.955V6.8415C20.3101 4.725 22.0051 3 24.1201 3H29.1901Z" fill="black"/>
</svg>
