<svg width="107" height="107" viewBox="0 0 107 107" fill="none" xmlns="http://www.w3.org/2000/svg">
<g clip-path="url(#clip0)">
<path d="M86.4133 31.9559C82.7994 13.8232 65.1704 2.05399 47.0377 5.66795C33.7754 8.31127 23.4054 18.6748 20.7539 31.9355C7.89725 33.4172 -1.32501 45.0403 0.155845 57.8977C1.51914 69.7306 11.5414 78.6582 23.4527 78.65H40.1911C42.0401 78.65 43.5389 77.1512 43.5389 75.3022C43.5389 73.4532 42.0401 71.9544 40.1911 71.9544H23.4527C14.2076 71.8997 6.75845 64.3615 6.81232 55.1172C6.86702 45.873 14.4052 38.423 23.6503 38.4769C25.3564 38.4777 26.7899 37.1936 26.9777 35.498C28.6773 20.8046 41.9666 10.2713 56.66 11.9709C69.0129 13.4004 78.7577 23.1443 80.1863 35.498C80.4671 37.2238 81.9626 38.4883 83.7112 38.4769C92.9563 38.4769 100.45 45.9709 100.45 55.216C100.45 64.4603 92.9563 71.9544 83.7112 71.9544H66.9729C65.1239 71.9544 63.6251 73.4532 63.6251 75.3022C63.6251 77.1512 65.1239 78.65 66.9729 78.65H83.7121C96.6536 78.5692 107.08 68.0131 107 55.0707C106.926 43.2851 98.1116 33.3878 86.4133 31.9559Z" fill="#3B1485"/>
<path d="M65.4162 65.0913C66.7011 66.4219 68.8204 66.4587 70.1502 65.1738C71.48 63.8896 71.5167 61.7704 70.2326 60.4406C70.2057 60.412 70.1779 60.3851 70.1502 60.3581L55.9523 46.157C54.647 44.8476 52.5269 44.8451 51.2175 46.1505C51.2159 46.1529 51.2134 46.1545 51.2118 46.157L37.0139 60.3581C35.6841 61.6422 35.6473 63.7615 36.9315 65.0913C38.2164 66.4211 40.3356 66.4579 41.6654 65.1738C41.6932 65.1468 41.721 65.1191 41.7479 65.0913L50.2346 56.6013V98.7362C50.2346 100.585 51.7334 102.084 53.5824 102.084C55.4307 102.084 56.9295 100.585 56.9295 98.7362V56.6013L65.4162 65.0913Z" fill="#3B1485"/>
</g>
<defs>
<clipPath id="clip0">
<rect width="107" height="107" fill="white"/>
</clipPath>
</defs>
</svg>
