<svg width="94" height="94" viewBox="0 0 94 94" fill="none" xmlns="http://www.w3.org/2000/svg">
<path fill-rule="evenodd" clip-rule="evenodd" d="M44.3474 21.7681C41.6117 23.3476 40.6743 26.8457 42.2538 29.5814C43.8333 32.3171 47.3314 33.2544 50.0671 31.675C52.8028 30.0955 53.7402 26.5974 52.1607 23.8617C50.5812 21.126 47.0831 20.1886 44.3474 21.7681ZM41.8474 17.438C36.7202 20.3981 34.9635 26.9542 37.9237 32.0814C38.4311 32.9603 39.0443 33.7402 39.7378 34.4143L26.6477 57.0869L27.0649 57.3278C24.2692 56.4111 21.1101 56.6425 18.3617 58.2293C13.2345 61.1895 11.4778 67.7456 14.438 72.8728C17.3981 77.9999 23.9542 79.7566 29.0814 76.7965C31.83 75.2096 33.6099 72.5893 34.2139 69.7097V70.1915L60.3938 70.1915C60.6308 71.1291 60.9996 72.0501 61.5071 72.9291C64.4673 78.0563 71.0234 79.813 76.1505 76.8528C81.2777 73.8926 83.0344 67.3365 80.0742 62.2094C77.1198 57.0921 70.5834 55.3323 65.4606 58.2685L67.596 57.0357L54.7323 34.7551L52.5671 36.0051C57.6943 33.0449 59.451 26.4888 56.4908 21.3617C53.5306 16.2345 46.9746 14.4778 41.8474 17.438ZM60.3379 65.1915C60.9751 62.3937 62.7269 59.8581 65.401 58.3029L63.2659 59.5357L50.4022 37.2551L52.5671 36.0051C49.8762 37.5587 46.7917 37.813 44.04 36.9627L30.9779 59.5869L30.8822 59.5317C31.7032 60.2686 32.4235 61.1458 33.0051 62.153C33.5867 63.1604 33.9862 64.2229 34.2139 65.3025V65.1915L60.3379 65.1915ZM18.7681 70.3728C17.1886 67.6371 18.126 64.1389 20.8617 62.5595C23.5974 60.98 27.0955 61.9173 28.675 64.653C30.2544 67.3887 29.3171 70.8869 26.5814 72.4663C23.8457 74.0458 20.3476 73.1085 18.7681 70.3728ZM65.8372 70.4291C64.2578 67.6934 65.1951 64.1953 67.9308 62.6158C70.6665 61.0363 74.1647 61.9736 75.7441 64.7094C77.3236 67.4451 76.3863 70.9432 73.6505 72.5227C70.9148 74.1021 67.4167 73.1648 65.8372 70.4291Z" fill="#096AE0"/>
</svg>
