<svg width="102" height="102" viewBox="0 0 102 102" fill="none" xmlns="http://www.w3.org/2000/svg">
<path d="M6.17578 27.293H95.8242V39.2461H6.17578V27.293Z" fill="#384949"/>
<path d="M51 27.293H95.8242V39.2461H51V27.293Z" fill="#293939"/>
<path d="M6.17578 63.1523H95.8242V75.1055H6.17578V63.1523Z" fill="#384949"/>
<path d="M51 63.1523H95.8242V75.1055H51V63.1523Z" fill="#293939"/>
<path d="M0 0V30.2812H102V0H0Z" fill="#4A696F"/>
<path d="M51 0H102V30.2812H51V0Z" fill="#384949"/>
<path d="M12.1523 12.3516H18.1289V18.3281H12.1523V12.3516Z" fill="#9BFCFF"/>
<path d="M24.1055 12.3516H30.082V18.3281H24.1055V12.3516Z" fill="#9BFCFF"/>
<path d="M36.0586 12.3516H42.0352V18.3281H36.0586V12.3516Z" fill="#9BFCFF"/>
<path d="M59.9648 12.3516H89.8477V18.3281H59.9648V12.3516Z" fill="#293939"/>
<path d="M0 36.2578V66.1406H102V36.2578H0Z" fill="#4A696F"/>
<path d="M51 36.2578H102V66.1406H51V36.2578Z" fill="#384949"/>
<path d="M12.1523 48.2109H18.1289V54.1875H12.1523V48.2109Z" fill="#9BFCFF"/>
<path d="M24.1055 48.2109H30.082V54.1875H24.1055V48.2109Z" fill="#9BFCFF"/>
<path d="M36.0586 48.2109H42.0352V54.1875H36.0586V48.2109Z" fill="#9BFCFF"/>
<path d="M59.9648 48.2109H89.8477V54.1875H59.9648V48.2109Z" fill="#293939"/>
<path d="M0 72.1172V102H102V72.1172H0Z" fill="#4A696F"/>
<path d="M51 72.1172H102V102H51V72.1172Z" fill="#384949"/>
<path d="M12.1523 84.0703H18.1289V90.0469H12.1523V84.0703Z" fill="#9BFCFF"/>
<path d="M24.1055 84.0703H30.082V90.0469H24.1055V84.0703Z" fill="#9BFCFF"/>
<path d="M36.0586 84.0703H42.0352V90.0469H36.0586V84.0703Z" fill="#9BFCFF"/>
<path d="M59.9648 84.0703H89.8477V90.0469H59.9648V84.0703Z" fill="#293939"/>
</svg>
