<svg xmlns="http://www.w3.org/2000/svg" viewBox="0 0 105.31 139.49"><defs><style>.cls-1{fill:#3e5668;}.cls-2{fill:#51a7f9;}</style></defs><title>Asset 49</title><g id="Layer_2" data-name="Layer 2"><g id="Layer_1-2" data-name="Layer 1"><path class="cls-1" d="M52.76,110.61a2.6,2.6,0,0,1-1-.28l-8.93-6.69a1.59,1.59,0,1,1,2-2.51l7.95,6,8-6a1.59,1.59,0,1,1,1.95,2.51l-8.93,6.69A2.55,2.55,0,0,1,52.76,110.61Z"/><path class="cls-1" d="M67.26,89.13a1.43,1.43,0,0,1-1.53-1.39,15.41,15.41,0,0,1,3.49-12,28.28,28.28,0,0,0,6-11.72l.28-1.11,1.12-.14c2.23-.14,4-3.07,4-6.56,0-3.2-1.53-6-3.62-6.55a1.59,1.59,0,1,1,.83-3.07c3.49.84,6,4.88,6,9.62S81.35,64.72,78,65.7a31,31,0,0,1-6.41,12,12.11,12.11,0,0,0-2.79,9.49A1.68,1.68,0,0,1,67.4,89,.14.14,0,0,1,67.26,89.13Z"/><path class="cls-1" d="M95.58,139.49H74.24a1.54,1.54,0,1,1,0-3.07h21.2a6.7,6.7,0,0,0,5.16-2.37,7,7,0,0,0,1.53-5.44l-2.65-17.3c-.13-.42-.27-1-.41-1.39a1.59,1.59,0,0,1,1.11-2,1.58,1.58,0,0,1,1.95,1.12c.14.56.28,1.25.42,1.81l2.65,17.44a9.5,9.5,0,0,1-9.62,11.16Z"/><path class="cls-1" d="M27.93,138.79h-18A9.67,9.67,0,0,1,2.4,135.3a9.33,9.33,0,0,1-2.23-8l2.65-16.6c.14-.69.28-1.25.42-1.81a1.59,1.59,0,1,1,3.07.84c-.14.55-.28,1-.42,1.53l-2.65,16.6a7,7,0,0,0,1.53,5.44,6.72,6.72,0,0,0,5.16,2.37h18a1.54,1.54,0,0,1,0,3.07Z"/><path class="cls-1" d="M39.78,87.6l-3.2-.42a12.15,12.15,0,0,0-2.79-9.49,33,33,0,0,1-6.42-12c-3.35-1-5.86-4.88-5.86-9.49s2.37-8.51,5.86-9.48a1.59,1.59,0,0,1,.84,3.07c-1.82.55-3.35,3.21-3.35,6.41,0,3.49,1.81,6.42,4,6.56l1.12.14L30.3,64a28.3,28.3,0,0,0,6,11.72A15.09,15.09,0,0,1,39.78,87.6Z"/><path class="cls-1" d="M27.93,49.8a1.55,1.55,0,0,1-1.54-1.54c0-.56-.55-14.64,8.09-23.57C39,20,45.22,17.58,52.9,17.58S66.71,20,71.31,24.69c8.51,8.93,8,23,8,23.57a1.59,1.59,0,0,1-1.67,1.54,1.68,1.68,0,0,1-1.54-1.68c0-.14.56-13.25-7-21.2-3.91-4-9.21-6.14-16-6.14s-12.14,2.1-16,6.14c-8,7.95-7.53,21.06-7.53,21.2a1.44,1.44,0,0,1-1.53,1.68Z"/><path class="cls-1" d="M64.33,39.89a34,34,0,0,1-3.76-.28c-4.61-.55-8.51-2.37-12.28-4.18-1-.42-1.95-1-3.07-1.4-3.9-1.81-7.11-2.23-9.76-1.25a8,8,0,0,0-4.32,3.63A1.56,1.56,0,0,1,28.35,35a10.57,10.57,0,0,1,6.13-5.3c3.35-1.25,7.54-.84,12.14,1.4a20.44,20.44,0,0,1,3.07,1.53c3.62,1.81,7.11,3.49,11.3,3.91a24.27,24.27,0,0,0,13.94-2.24A1.45,1.45,0,0,1,77,35a1.44,1.44,0,0,1-.7,2.09A24.85,24.85,0,0,1,64.33,39.89Z"/><path class="cls-1" d="M52.76,138.79a1.55,1.55,0,0,1-1.54-1.53V109.08a1.54,1.54,0,1,1,3.07,0v28.18A1.55,1.55,0,0,1,52.76,138.79Z"/><path class="cls-2" d="M92.79,94H12.58a1.54,1.54,0,0,1-1.53-1.53V58.58a1.54,1.54,0,0,1,3.07,0V90.81h77V58.58a1.53,1.53,0,0,1,3.06,0v33.9A1.35,1.35,0,0,1,92.79,94Z"/><path class="cls-2" d="M92.79,47.7a1.55,1.55,0,0,1-1.54-1.53V13.81H14.12V46a1.54,1.54,0,1,1-3.07,0V10.6H94.46V46A1.78,1.78,0,0,1,92.79,47.7Z"/><path class="cls-1" d="M33.23,104.62H2a1.55,1.55,0,0,1-1.53-1.54V71.7A1.55,1.55,0,0,1,2,70.16,1.55,1.55,0,0,1,3.52,71.7v29.71H33.23a1.54,1.54,0,0,1,1.53,1.53A1.44,1.44,0,0,1,33.23,104.62Z"/><path class="cls-1" d="M103.39,104.62H72a1.54,1.54,0,1,1,0-3.07h29.71V71.7a1.54,1.54,0,1,1,3.07,0v31.38C105.06,103.92,104.23,104.62,103.39,104.62Z"/><path class="cls-1" d="M2,34.59A1.54,1.54,0,0,1,.45,33.06V1.53A1.55,1.55,0,0,1,2,0,1.55,1.55,0,0,1,3.52,1.53V32.92A1.58,1.58,0,0,1,2,34.59Z"/><path class="cls-1" d="M33.23,3.21H2A1.55,1.55,0,0,1,.45,1.67,1.55,1.55,0,0,1,2,.14H33.23a1.54,1.54,0,0,1,1.53,1.53A1.39,1.39,0,0,1,33.23,3.21Z"/><path class="cls-1" d="M103.39,34.59a1.54,1.54,0,0,1-1.53-1.53V1.53a1.53,1.53,0,0,1,3.06,0V32.92A1.49,1.49,0,0,1,103.39,34.59Z"/><path class="cls-1" d="M103.39,3.21H72a1.55,1.55,0,0,1-1.54-1.54A1.55,1.55,0,0,1,72,.14h31.38a1.54,1.54,0,0,1,1.53,1.53A1.46,1.46,0,0,1,103.39,3.21Z"/><path class="cls-2" d="M101.86,54h-12a1.54,1.54,0,0,1,0-3.07h12a1.55,1.55,0,0,1,1.53,1.54A1.39,1.39,0,0,1,101.86,54Z"/><path class="cls-2" d="M15.37,54h-12a1.54,1.54,0,1,1,0-3.07h12a1.54,1.54,0,1,1,0,3.07Z"/></g></g></svg>