<svg xmlns="http://www.w3.org/2000/svg" viewBox="0 0 173.87 111.27"><defs><style>.cls-1{fill:#3e5668;}.cls-2{fill:#51a7f9;}.cls-3{fill:#3ebbb3;}.cls-4{fill:#fff;}</style></defs><title>Asset 48</title><g id="Layer_2" data-name="Layer 2"><g id="Layer_1-2" data-name="Layer 1"><path class="cls-1" d="M151.32,61.43a.86.86,0,0,1-.92-.84,9.2,9.2,0,0,1,2.09-7.18,17,17,0,0,0,3.59-7l.16-.67.67-.09c1.34-.08,2.42-1.83,2.42-3.92,0-1.92-.92-3.59-2.17-3.93a.95.95,0,1,1,.5-1.83c2.09.5,3.59,2.92,3.59,5.76s-1.5,5.09-3.5,5.68a18.81,18.81,0,0,1-3.84,7.18,7.23,7.23,0,0,0-1.68,5.68,1,1,0,0,1-.83,1.08A.08.08,0,0,1,151.32,61.43Z"/><path class="cls-1" d="M134.86,60.51l-1.92-.25a7.22,7.22,0,0,0-1.67-5.68,20,20,0,0,1-3.84-7.18c-2-.59-3.51-2.93-3.51-5.68s1.42-5.1,3.51-5.68a1,1,0,1,1,.5,1.84c-1.08.33-2,1.92-2,3.84,0,2.09,1.08,3.84,2.42,3.92l.67.09.17.67a16.89,16.89,0,0,0,3.59,7A9,9,0,0,1,134.86,60.51Z"/><path class="cls-1" d="M127.77,37.88a.92.92,0,0,1-.92-.92c0-.34-.34-8.77,4.84-14.11,2.67-2.84,6.43-4.26,11-4.26s8.27,1.42,11,4.26c5.09,5.34,4.76,13.77,4.76,14.11a1,1,0,0,1-1,.92,1,1,0,0,1-.92-1c0-.08.33-7.93-4.18-12.69-2.34-2.42-5.51-3.67-9.6-3.67a12.85,12.85,0,0,0-9.61,3.67c-4.76,4.76-4.51,12.61-4.51,12.69a.86.86,0,0,1-.91,1Z"/><path class="cls-1" d="M149.56,32a21.29,21.29,0,0,1-2.25-.17,23.13,23.13,0,0,1-7.35-2.5c-.59-.26-1.17-.59-1.84-.84-2.34-1.09-4.26-1.34-5.84-.75a4.82,4.82,0,0,0-2.59,2.17A.93.93,0,1,1,128,29a6.35,6.35,0,0,1,3.67-3.17c2-.75,4.51-.5,7.27.84a12,12,0,0,1,1.83.92,19.32,19.32,0,0,0,6.77,2.33,14.53,14.53,0,0,0,8.35-1.33.93.93,0,1,1,.83,1.67A14.9,14.9,0,0,1,149.56,32Z"/><path class="cls-2" d="M166.6,64.35h-48a.93.93,0,0,1-.92-.92V43.14a.92.92,0,0,1,1.84,0V62.43h46.1V43.14a.92.92,0,1,1,1.83,0V63.43A.81.81,0,0,1,166.6,64.35Z"/><path class="cls-2" d="M166.6,36.62a.92.92,0,0,1-.92-.91V16.33H119.5V35.62a.92.92,0,0,1-1.84,0V14.41H167.6V35.62A1.06,1.06,0,0,1,166.6,36.62Z"/><path class="cls-1" d="M130.94,70.7H112.23a.93.93,0,0,1-.92-.92V51a.92.92,0,1,1,1.84,0V68.78h17.79a.92.92,0,0,1,.92.91A.87.87,0,0,1,130.94,70.7Z"/><path class="cls-1" d="M173,70.7H154.16a.92.92,0,0,1,0-1.84h17.78V51a.92.92,0,0,1,1.84,0V69.78C174,70.28,173.45,70.7,173,70.7Z"/><path class="cls-1" d="M112.23,28.77a.92.92,0,0,1-.92-.91V9a.92.92,0,1,1,1.84,0V27.77A.94.94,0,0,1,112.23,28.77Z"/><path class="cls-1" d="M130.94,10H112.23a.92.92,0,1,1,0-1.83h18.71a.92.92,0,0,1,.92.92A.83.83,0,0,1,130.94,10Z"/><path class="cls-1" d="M173,28.77a.92.92,0,0,1-.92-.91V9a.92.92,0,1,1,1.83,0V27.77A.89.89,0,0,1,173,28.77Z"/><path class="cls-1" d="M173,10H154.16a.92.92,0,1,1,0-1.83H173a.92.92,0,0,1,.91.92C174,9.57,173.45,10,173,10Z"/><path class="cls-2" d="M172,40.38h-7.18a.92.92,0,1,1,0-1.83H172a.92.92,0,0,1,.92.91A.84.84,0,0,1,172,40.38Z"/><path class="cls-2" d="M120.25,40.38h-7.18a.92.92,0,1,1,0-1.83h7.18a.92.92,0,1,1,0,1.83Z"/><circle class="cls-3" cx="142.44" cy="64.3" r="10.38"/><path class="cls-4" d="M141.18,70a1,1,0,0,1-.84-.4l-3.57-4.44a1.37,1.37,0,0,1-.3-.93,1.35,1.35,0,0,1,.36-.9,1,1,0,0,1,.76-.34,1.08,1.08,0,0,1,.83.41l2.7,3.39,5.92-7.3a1.08,1.08,0,0,1,.84-.43,1.31,1.31,0,0,1,.89.4,1.39,1.39,0,0,1,.32.87,1.41,1.41,0,0,1-.29.92L142,69.57A1,1,0,0,1,141.18,70Z"/><path class="cls-1" d="M66.81,89.13a1.43,1.43,0,0,1-1.53-1.39,15.41,15.41,0,0,1,3.49-12,28.42,28.42,0,0,0,6-11.72L75,62.91l1.12-.14c2.23-.14,4-3.07,4-6.56,0-3.2-1.54-6-3.63-6.55a1.59,1.59,0,1,1,.84-3.07c3.48.84,6,4.88,6,9.62s-2.51,8.51-5.86,9.49a31,31,0,0,1-6.41,12,12.11,12.11,0,0,0-2.79,9.49A1.68,1.68,0,0,1,67,89,.14.14,0,0,1,66.81,89.13Z"/><path class="cls-1" d="M39.34,87.6l-3.21-.42a12.11,12.11,0,0,0-2.79-9.49,33.19,33.19,0,0,1-6.42-12c-3.35-1-5.86-4.88-5.86-9.49s2.37-8.51,5.86-9.48a1.59,1.59,0,0,1,.84,3.07c-1.82.55-3.35,3.21-3.35,6.41,0,3.49,1.81,6.42,4.05,6.56l1.11.14L29.85,64a28.42,28.42,0,0,0,6,11.72A15.13,15.13,0,0,1,39.34,87.6Z"/><path class="cls-1" d="M27.48,49.8a1.55,1.55,0,0,1-1.54-1.54c0-.56-.55-14.64,8.09-23.57C38.5,20,44.78,17.58,52.45,17.58S66.26,20,70.86,24.69c8.51,8.93,8,23,8,23.57a1.59,1.59,0,0,1-1.67,1.54,1.68,1.68,0,0,1-1.54-1.68c0-.14.56-13.25-7-21.2-3.91-4-9.21-6.14-16-6.14s-12.14,2.1-16,6.14C28.59,34.87,29,48,29,48.12a1.44,1.44,0,0,1-1.53,1.68Z"/><path class="cls-1" d="M63.89,39.89a34,34,0,0,1-3.77-.28c-4.6-.55-8.51-2.37-12.28-4.18-1-.42-2-1-3.06-1.4-3.91-1.81-7.12-2.23-9.77-1.25a8,8,0,0,0-4.32,3.63A1.56,1.56,0,0,1,27.9,35,10.6,10.6,0,0,1,34,29.71c3.35-1.25,7.54-.84,12.14,1.4a20,20,0,0,1,3.07,1.53c3.63,1.81,7.11,3.49,11.3,3.91a24.32,24.32,0,0,0,13.95-2.24,1.56,1.56,0,0,1,1.39,2.79A24.84,24.84,0,0,1,63.89,39.89Z"/><path class="cls-2" d="M92.34,94H12.14a1.55,1.55,0,0,1-1.54-1.53V58.58a1.54,1.54,0,0,1,3.07,0V90.81h77V58.58a1.54,1.54,0,0,1,3.07,0v33.9A1.36,1.36,0,0,1,92.34,94Z"/><path class="cls-2" d="M92.34,47.7a1.54,1.54,0,0,1-1.53-1.53V13.81H13.67V46a1.54,1.54,0,1,1-3.07,0V10.6H94V46A1.78,1.78,0,0,1,92.34,47.7Z"/><path class="cls-1" d="M32.78,104.62H1.53A1.55,1.55,0,0,1,0,103.08V71.7a1.55,1.55,0,0,1,1.53-1.54A1.55,1.55,0,0,1,3.07,71.7v29.71H32.78a1.54,1.54,0,0,1,1.53,1.53A1.44,1.44,0,0,1,32.78,104.62Z"/><path class="cls-1" d="M102.94,104.62H71.56a1.54,1.54,0,1,1,0-3.07h29.71V71.7a1.54,1.54,0,1,1,3.07,0v31.38C104.62,103.92,103.78,104.62,102.94,104.62Z"/><path class="cls-1" d="M1.53,34.59A1.54,1.54,0,0,1,0,33.06V1.53A1.55,1.55,0,0,1,1.53,0,1.55,1.55,0,0,1,3.07,1.53V32.92A1.58,1.58,0,0,1,1.53,34.59Z"/><path class="cls-1" d="M32.78,3.21H1.53A1.55,1.55,0,0,1,0,1.67,1.55,1.55,0,0,1,1.53.14H32.78a1.54,1.54,0,0,1,1.53,1.53A1.39,1.39,0,0,1,32.78,3.21Z"/><path class="cls-1" d="M102.94,34.59a1.54,1.54,0,0,1-1.53-1.53V1.53a1.54,1.54,0,0,1,3.07,0V32.92A1.5,1.5,0,0,1,102.94,34.59Z"/><path class="cls-1" d="M102.94,3.21H71.56A1.55,1.55,0,0,1,70,1.67,1.55,1.55,0,0,1,71.56.14h31.38a1.55,1.55,0,0,1,1.54,1.53A1.47,1.47,0,0,1,102.94,3.21Z"/><path class="cls-2" d="M101.41,54h-12a1.54,1.54,0,0,1,0-3.07h12a1.55,1.55,0,0,1,1.53,1.54A1.39,1.39,0,0,1,101.41,54Z"/><path class="cls-2" d="M14.93,54h-12a1.54,1.54,0,1,1,0-3.07h12a1.54,1.54,0,0,1,0,3.07Z"/><circle class="cls-3" cx="51.99" cy="93.92" r="17.34"/><path class="cls-4" d="M49.88,103.43a1.71,1.71,0,0,1-1.4-.66l-6-7.42a2.44,2.44,0,0,1,.1-3.06,1.74,1.74,0,0,1,1.27-.56,1.78,1.78,0,0,1,1.39.69l4.52,5.65,9.88-12.18a1.79,1.79,0,0,1,1.4-.72,2.19,2.19,0,0,1,1.49.66,2.26,2.26,0,0,1,.54,1.45,2.35,2.35,0,0,1-.49,1.54L51.3,102.74A1.73,1.73,0,0,1,49.88,103.43Z"/></g></g></svg>