<svg width="85" height="85" viewBox="0 0 85 85" fill="none" xmlns="http://www.w3.org/2000/svg">
<g clip-path="url(#clip0)">
<path d="M68.7303 85H16.2696C14.8943 85 13.7794 83.885 13.7794 82.5098V72.2165C13.7794 64.8617 16.789 57.9347 22.2543 52.7117C27.6884 47.5183 34.8785 44.658 42.4999 44.658C50.1214 44.658 57.3113 47.5183 62.7456 52.7121C68.2107 57.9351 71.2205 64.8619 71.2205 72.2165V82.5098C71.2205 83.885 70.1056 85 68.7303 85Z" fill="#4FF6D8"/>
<path d="M62.7458 52.7121C57.3116 47.5185 50.1217 44.6582 42.5005 44.658V85.0001H68.7305C70.1058 85.0001 71.2208 83.8852 71.2208 82.5099V72.2166C71.2208 64.862 68.2111 57.9351 62.7458 52.7121Z" fill="#00DDC1"/>
<path fill-rule="evenodd" clip-rule="evenodd" d="M42.5002 35.2783C46.1527 35.2783 49.141 38.2666 49.141 41.9189V50.2197C49.141 53.8721 46.1527 56.8604 42.5004 56.8604H42.5002C38.8478 56.8604 35.8596 53.8721 35.8596 50.2197V41.9189C35.8596 38.2666 38.8478 35.2783 42.5002 35.2783Z" fill="#FFCDBE"/>
<path fill-rule="evenodd" clip-rule="evenodd" d="M42.5005 35.2782V56.8602C46.1527 56.8601 49.1408 53.8718 49.1408 50.2196V41.9188C49.1408 38.2665 46.1527 35.2784 42.5005 35.2782Z" fill="#FFBEAA"/>
<path d="M20.6367 0H11.9531C10.5779 0 9.46289 1.11496 9.46289 2.49023V9.73831C9.46289 11.1136 10.5779 12.2285 11.9531 12.2285C13.3284 12.2285 14.4434 11.1136 14.4434 9.73831V4.98047H20.6366C22.0118 4.98047 23.1268 3.86551 23.1268 2.49023C23.1268 1.11496 22.012 0 20.6367 0V0Z" fill="#00607F"/>
<path d="M73.0468 0H64.3633C62.9881 0 61.8731 1.11496 61.8731 2.49023C61.8731 3.86551 62.9881 4.98047 64.3633 4.98047H70.5566V9.73831C70.5566 11.1136 71.6715 12.2285 73.0468 12.2285C74.4221 12.2285 75.537 11.1136 75.537 9.73831V2.49023C75.537 1.11496 74.4222 0 73.0468 0V0Z" fill="#002C3C"/>
<path d="M20.6367 42.8321H14.4434V38.0742C14.4434 36.6989 13.3284 35.584 11.9531 35.584C10.5779 35.584 9.46289 36.6989 9.46289 38.0742V45.3223C9.46289 46.6976 10.5779 47.8125 11.9531 47.8125H20.6366C22.0118 47.8125 23.1268 46.6976 23.1268 45.3223C23.1268 43.947 22.012 42.8321 20.6367 42.8321Z" fill="#00607F"/>
<path d="M73.0468 35.5838C71.6715 35.5838 70.5566 36.6988 70.5566 38.074V42.8319H64.3633C62.9881 42.8319 61.8731 43.9468 61.8731 45.3221C61.8731 46.6974 62.9881 47.8123 64.3633 47.8123H73.0468C74.4221 47.8123 75.537 46.6974 75.537 45.3221V38.074C75.537 36.6988 74.4222 35.5838 73.0468 35.5838Z" fill="#002C3C"/>
<path d="M42.5001 49.7198C30.3353 49.7198 20.4384 39.823 20.4384 27.6581C20.4384 17.245 27.6902 8.49368 37.4089 6.18923C39.0438 5.80158 64.556 28.247 64.5444 28.5392C64.0804 40.2973 54.37 49.7198 42.5001 49.7198Z" fill="#FFDECF"/>
<path d="M42.5005 9.60297V49.72C54.3702 49.7198 64.0806 40.2973 64.5446 28.5392C64.5531 28.3216 50.3976 15.8105 42.5005 9.60297Z" fill="#FFCDBE"/>
<path d="M42.5001 5.59637C40.7483 5.59637 39.044 5.80273 37.4092 6.19038C37.3973 6.48589 37.3903 6.78139 37.3903 7.07657C37.3903 19.2415 47.2872 29.1384 59.4521 29.1384C61.1646 29.1384 62.8764 28.9345 64.5428 28.5392C64.5544 28.2469 64.5619 27.9534 64.5619 27.6582C64.5619 15.4934 54.6651 5.59637 42.5001 5.59637Z" fill="#FFD321"/>
<path d="M42.5005 5.59637V21.1801C46.5507 26.0399 52.6461 29.1384 59.4521 29.1384C61.1645 29.1384 62.8763 28.9345 64.5428 28.5392C64.5544 28.2469 64.5619 27.9534 64.5619 27.6582C64.5619 15.4934 54.6652 5.59671 42.5005 5.59637Z" fill="#FF9D21"/>
</g>
<defs>
<clipPath id="clip0">
<rect width="85" height="85" fill="white"/>
</clipPath>
</defs>
</svg>
