<svg xmlns="http://www.w3.org/2000/svg" viewBox="0 0 104.49 104.62"><defs><style>.cls-1{fill:#3e5668;}.cls-2{fill:#51a7f9;}</style></defs><title>Asset 44</title><g id="Layer_2" data-name="Layer 2"><g id="Layer_1-2" data-name="Layer 1"><path class="cls-1" d="M46.46,59.39a1.08,1.08,0,0,0-1-1.14,1.09,1.09,0,0,0-1.14,1v.22a3.89,3.89,0,0,0,3.89,3.89,4,4,0,0,0,1.57-.32,4.41,4.41,0,0,0,6.37,0,4,4,0,0,0,1.56.32,3.9,3.9,0,0,0,3.9-3.89s0-.2,0-.22a1.08,1.08,0,0,0-1.1-.94,1.15,1.15,0,0,0-1.05,1.16,1.74,1.74,0,0,1-1.74,1.74,1.72,1.72,0,0,1-1.13-.42,1.07,1.07,0,0,0-.89-.24,1.1,1.1,0,0,0-.76.53,2.25,2.25,0,0,1-3.94,0,1.1,1.1,0,0,0-.76-.53,1.08,1.08,0,0,0-.89.24,1.72,1.72,0,0,1-1.13.42A1.76,1.76,0,0,1,46.46,59.39Z"/><path class="cls-1" d="M69.86,39.69c-3.76,0-7.08,1.88-8.46,4.79a1.09,1.09,0,0,0,.51,1.44,1.08,1.08,0,0,0,1.44-.52,6.5,6.5,0,0,1,4.28-3.25A2.83,2.83,0,0,0,67,43.92a2.87,2.87,0,0,0,5.73,0,2.82,2.82,0,0,0-.64-1.77,6.52,6.52,0,0,1,4.29,3.25,1.07,1.07,0,0,0,1,.62,1.06,1.06,0,0,0,.46-.1,1.09,1.09,0,0,0,.52-1.44C76.94,41.57,73.62,39.69,69.86,39.69Z"/><path class="cls-1" d="M79.88,34.44c-5.91-2.9-17-2.57-21.63.63a1.72,1.72,0,1,0,2,2.83c3.57-2.49,13.4-2.69,18.14-.37a1.72,1.72,0,0,0,1.52-3.09Z"/><path class="cls-1" d="M46.5,37.9a1.72,1.72,0,0,0,2-2.83c-4.6-3.2-15.71-3.53-21.62-.63a1.73,1.73,0,1,0,1.52,3.1C33.1,35.21,42.93,35.41,46.5,37.9Z"/><path class="cls-1" d="M63.15,69.22A13.93,13.93,0,0,1,53.36,73a13.94,13.94,0,0,1-9.79-3.73,1.72,1.72,0,0,0-2.42,2.45,17.41,17.41,0,0,0,12.21,4.72,17.37,17.37,0,0,0,12.21-4.72,1.72,1.72,0,0,0-2.42-2.45Z"/><path class="cls-1" d="M43.18,45.41a1.08,1.08,0,0,0,1,.61,1.06,1.06,0,0,0,.46-.1,1.09,1.09,0,0,0,.52-1.44c-1.38-2.91-4.7-4.78-8.46-4.78s-7.08,1.87-8.46,4.78a1.08,1.08,0,1,0,1.94.93,6.51,6.51,0,0,1,4.29-3.26,2.84,2.84,0,0,0-.64,1.77,2.87,2.87,0,1,0,5.1-1.77A6.49,6.49,0,0,1,43.18,45.41Z"/><path class="cls-2" d="M92.34,94H12.14a1.55,1.55,0,0,1-1.54-1.53V58.58a1.54,1.54,0,0,1,3.07,0V90.81h77V58.58a1.54,1.54,0,0,1,3.07,0v33.9A1.36,1.36,0,0,1,92.34,94Z"/><path class="cls-2" d="M92.34,47.7a1.54,1.54,0,0,1-1.53-1.53V13.81H13.67V46a1.54,1.54,0,1,1-3.07,0V10.6H94V46A1.78,1.78,0,0,1,92.34,47.7Z"/><path class="cls-1" d="M32.78,104.62H1.53A1.55,1.55,0,0,1,0,103.08V71.7a1.55,1.55,0,0,1,1.53-1.54A1.55,1.55,0,0,1,3.07,71.7v29.71H32.78a1.54,1.54,0,0,1,1.53,1.53A1.44,1.44,0,0,1,32.78,104.62Z"/><path class="cls-1" d="M102.94,104.62H71.56a1.54,1.54,0,1,1,0-3.07h29.71V71.7a1.54,1.54,0,1,1,3.07,0v31.38C104.62,103.92,103.78,104.62,102.94,104.62Z"/><path class="cls-1" d="M1.53,34.59A1.54,1.54,0,0,1,0,33.06V1.53A1.55,1.55,0,0,1,1.53,0,1.55,1.55,0,0,1,3.07,1.53V32.92A1.58,1.58,0,0,1,1.53,34.59Z"/><path class="cls-1" d="M32.78,3.21H1.53A1.55,1.55,0,0,1,0,1.67,1.55,1.55,0,0,1,1.53.14H32.78a1.54,1.54,0,0,1,1.53,1.53A1.39,1.39,0,0,1,32.78,3.21Z"/><path class="cls-1" d="M102.94,34.59a1.54,1.54,0,0,1-1.53-1.53V1.53a1.54,1.54,0,0,1,3.07,0V32.92A1.5,1.5,0,0,1,102.94,34.59Z"/><path class="cls-1" d="M102.94,3.21H71.56A1.55,1.55,0,0,1,70,1.67,1.55,1.55,0,0,1,71.56.14h31.38a1.55,1.55,0,0,1,1.54,1.53A1.47,1.47,0,0,1,102.94,3.21Z"/><path class="cls-2" d="M101.41,54h-12a1.54,1.54,0,0,1,0-3.07h12a1.55,1.55,0,0,1,1.53,1.54A1.39,1.39,0,0,1,101.41,54Z"/><path class="cls-2" d="M14.93,54h-12a1.54,1.54,0,1,1,0-3.07h12a1.54,1.54,0,0,1,0,3.07Z"/></g></g></svg>