<svg width="85" height="85" viewBox="0 0 85 85" fill="none" xmlns="http://www.w3.org/2000/svg">
<path d="M12.6172 54.9512H2.49023C1.1138 54.9512 0 53.8374 0 52.4609V7.63672C0 6.26028 1.1138 5.14648 2.49023 5.14648H62.4219C63.7983 5.14648 64.9121 6.26028 64.9121 7.63672V17.5977C64.9121 18.9741 63.7983 20.0879 62.4219 20.0879H25.0684V32.5391C25.0684 33.9155 23.9546 35.0293 22.5781 35.0293H15.1074V52.4609C15.1074 53.8374 13.9936 54.9512 12.6172 54.9512Z" fill="#FFCB66"/>
<path d="M62.4219 5.14648H42.5V20.0879H62.4219C63.7983 20.0879 64.9121 18.9741 64.9121 17.5977V7.63672C64.9121 6.26028 63.7983 5.14648 62.4219 5.14648Z" fill="#FFA54D"/>
<path d="M82.5098 64.9121H72.3828C71.0064 64.9121 69.8926 63.7983 69.8926 62.4219V35.0293H22.5781C21.2017 35.0293 20.0879 33.9155 20.0879 32.5391V17.5977C20.0879 16.2212 21.2017 15.1074 22.5781 15.1074H82.5098C83.8862 15.1074 85 16.2212 85 17.5977V62.4219C85 63.7983 83.8862 64.9121 82.5098 64.9121Z" fill="#E6F2F2"/>
<path d="M82.5098 15.1074H42.5V35.0293H69.8926V62.4219C69.8926 63.7983 71.0064 64.9121 72.3828 64.9121H82.5098C83.8862 64.9121 85 63.7983 85 62.4219V17.5977C85 16.2212 83.8862 15.1074 82.5098 15.1074Z" fill="#CFE6E6"/>
<path d="M72.3828 30.0488H12.6172C11.2225 30.0488 10.127 31.1444 10.127 32.5391V77.3633C10.127 78.0605 10.4258 78.6582 10.8242 79.1562L27.5586 72.3828H47.4805L74.1758 79.1562C74.5742 78.6582 74.873 78.0605 74.873 77.3633V32.5391C74.873 31.1444 73.7775 30.0488 72.3828 30.0488Z" fill="#66B3FF"/>
<path d="M72.3828 30.0488H42.5V72.3828H47.4805L74.1758 79.1562C74.5742 78.6582 74.873 78.0605 74.873 77.3633V32.5391C74.873 31.1444 73.7775 30.0488 72.3828 30.0488Z" fill="#4D88FF"/>
<path d="M74.1758 79.1563C73.6777 79.5547 73.0801 79.8535 72.3828 79.8535H12.6172C11.9199 79.8535 11.3223 79.5547 10.8242 79.1563L25.7977 64.1828C26.7702 63.2103 28.3468 63.2103 29.3194 64.1828L30.7781 65.6416C31.7507 66.6141 33.3273 66.6141 34.2998 65.6416L45.7195 54.2219C46.6921 53.2494 48.2687 53.2494 49.2412 54.2219L74.1758 79.1563Z" fill="#ADE65C"/>
<path d="M27.5586 54.9512C23.4391 54.9512 20.0879 51.6 20.0879 47.4805C20.0879 43.361 23.4391 40.0098 27.5586 40.0098C31.6781 40.0098 35.0293 43.361 35.0293 47.4805C35.0293 51.6 31.6781 54.9512 27.5586 54.9512Z" fill="#FFCB66"/>
<path d="M45.7195 54.2215L42.5 57.4411V79.8535H72.3828C73.0801 79.8535 73.6777 79.5547 74.1758 79.1562L49.2414 54.2215C48.2687 53.2492 46.6922 53.2492 45.7195 54.2215Z" fill="#7ACC52"/>
</svg>
