<svg width="25" height="25" viewBox="0 0 25 25" fill="none" xmlns="http://www.w3.org/2000/svg">
<path d="M9.51523 21.6389V18.4538C9.51523 17.6407 10.1792 16.9816 10.9982 16.9816H13.9921C14.3854 16.9816 14.7626 17.1367 15.0408 17.4128C15.3189 17.6889 15.4751 18.0634 15.4751 18.4538V21.6389C15.4726 21.977 15.6062 22.302 15.8461 22.5419C16.086 22.7818 16.4124 22.9167 16.7529 22.9167H18.7955C19.7495 22.9192 20.6652 22.5447 21.3406 21.8759C22.0161 21.2071 22.3957 20.299 22.3957 19.3519V10.278C22.3957 9.51302 22.0541 8.78738 21.463 8.29657L14.5144 2.7874C13.3057 1.82146 11.5739 1.85265 10.4013 2.86148L3.61131 8.29657C2.99228 8.77291 2.62229 9.5007 2.604 10.278V19.3427C2.604 21.3166 4.21586 22.9167 6.20418 22.9167H8.20014C8.90736 22.9167 9.48213 22.3503 9.48725 21.6482L9.51523 21.6389Z" fill="#848484"/>
</svg>
