<svg width="102" height="102" viewBox="0 0 102 102" fill="none" xmlns="http://www.w3.org/2000/svg">
<g clip-path="url(#clip0)">
<path fill-rule="evenodd" clip-rule="evenodd" d="M24.6206 35.1723H5.27574C4.30448 35.1723 3.51712 34.3849 3.51712 33.4137C3.51712 32.4424 4.30448 31.655 5.27574 31.655H24.6206C25.5918 31.655 26.3792 32.4424 26.3792 33.4137C26.3792 34.3849 25.5918 35.1723 24.6206 35.1723Z" fill="#3B97D3"/>
<path fill-rule="evenodd" clip-rule="evenodd" d="M28.1377 21.1033H12.3101C9.39632 21.1033 7.03424 18.7412 7.03424 15.8274V5.27571C7.03424 4.30445 7.8216 3.51709 8.79286 3.51709C9.76412 3.51709 10.5515 4.30445 10.5515 5.27571V15.8274C10.5515 16.7987 11.3388 17.5861 12.3101 17.5861H28.1377C29.109 17.5861 29.8963 18.3734 29.8963 19.3447C29.8963 20.3159 29.109 21.1033 28.1377 21.1033Z" fill="#3B97D3"/>
<path fill-rule="evenodd" clip-rule="evenodd" d="M8.79286 63.3103C7.8216 63.3103 7.03424 62.5229 7.03424 61.5517V51C7.03424 48.0862 9.39632 45.7241 12.3101 45.7241H26.3791C27.3503 45.7241 28.1377 46.5115 28.1377 47.4827C28.1377 48.454 27.3503 49.2414 26.3791 49.2414H12.3101C11.3388 49.2414 10.5515 50.0287 10.5515 51V61.5517C10.5515 62.5229 9.76412 63.3103 8.79286 63.3103Z" fill="#3B97D3"/>
<path fill-rule="evenodd" clip-rule="evenodd" d="M96.7239 35.1723H77.379C76.4078 35.1723 75.6204 34.3849 75.6204 33.4137C75.6204 32.4424 76.4078 31.655 77.379 31.655H96.7239C97.6952 31.655 98.4825 32.4424 98.4825 33.4137C98.4825 34.3849 97.6952 35.1723 96.7239 35.1723Z" fill="#3B97D3"/>
<path fill-rule="evenodd" clip-rule="evenodd" d="M89.6894 21.1033H75.6205C74.6492 21.1033 73.8618 20.3159 73.8618 19.3447C73.8618 18.3734 74.6492 17.5861 75.6205 17.5861H89.6894C90.6607 17.5861 91.448 16.7987 91.448 15.8274V5.27571C91.448 4.30445 92.2354 3.51709 93.2067 3.51709C94.1779 3.51709 94.9653 4.30445 94.9653 5.27571V15.8274C94.9653 18.7412 92.6032 21.1033 89.6894 21.1033Z" fill="#3B97D3"/>
<path fill-rule="evenodd" clip-rule="evenodd" d="M93.2068 63.3103C92.2355 63.3103 91.4482 62.5229 91.4482 61.5517V51C91.4482 50.0287 90.6608 49.2414 89.6895 49.2414H72.1033C71.1321 49.2414 70.3447 48.454 70.3447 47.4827C70.3447 46.5115 71.1321 45.7241 72.1033 45.7241H89.6895C92.6033 45.7241 94.9654 48.0862 94.9654 51V61.5517C94.9654 62.5229 94.178 63.3103 93.2068 63.3103Z" fill="#3B97D3"/>
<path fill-rule="evenodd" clip-rule="evenodd" d="M65.0866 72.9827C65.069 73.2113 65.069 73.4575 65.069 73.6861V89.6896C65.069 92.6033 62.7069 94.9654 59.7932 94.9654H42.2069C39.2932 94.9654 36.9311 92.6033 36.9311 89.6896V73.862C36.9311 73.563 36.9311 73.2816 36.9135 72.9827H65.0866Z" fill="#547580"/>
<path fill-rule="evenodd" clip-rule="evenodd" d="M59.7931 94.9656C59.7931 98.8521 55.8538 102 51 102C46.1462 102 42.2069 98.8521 42.2069 94.9656" fill="#35495E"/>
<path fill-rule="evenodd" clip-rule="evenodd" d="M65.0689 86.1725H36.931C35.9598 86.1725 35.1724 85.3851 35.1724 84.4139C35.1724 83.4426 35.9598 82.6553 36.931 82.6553H65.0689C66.0402 82.6553 66.8276 83.4426 66.8276 84.4139C66.8276 85.3851 66.0402 86.1725 65.0689 86.1725Z" fill="#3F5C6C"/>
<path fill-rule="evenodd" clip-rule="evenodd" d="M31.6551 80.8965H36.9309V87.931H31.6551C29.7126 87.931 28.1378 86.3563 28.1378 84.4137C28.1378 82.4712 29.7126 80.8965 31.6551 80.8965Z" fill="#95A5A5"/>
<path fill-rule="evenodd" clip-rule="evenodd" d="M70.3449 87.9309H65.069V80.8964H70.3449C72.2874 80.8964 73.8621 82.4711 73.8621 84.4137C73.8621 86.3562 72.2874 87.9309 70.3449 87.9309Z" fill="#95A5A5"/>
<path fill-rule="evenodd" clip-rule="evenodd" d="M72.8421 58.7028C67.9911 62.9993 65.1755 69.1412 65.0865 75.6207H36.9134C36.76 69.1208 33.928 62.9731 29.0876 58.6324C18.5573 49.4812 14.8209 34.7508 19.7162 21.6869C24.6116 8.62296 37.1081 -0.024583 51.0591 -0.00215374C65.0101 0.0202755 77.4789 8.70795 82.3321 21.7876C87.1854 34.8672 83.4017 49.5855 72.8421 58.7028Z" fill="#F0C419"/>
<path fill-rule="evenodd" clip-rule="evenodd" d="M42.1613 10.434C43.0674 10.0838 43.5182 9.06538 43.1681 8.1592C42.8179 7.25301 41.7995 6.80225 40.8933 7.15239C30.0653 11.3791 22.917 21.7903 22.8622 33.4139C22.8622 34.3851 23.6495 35.1725 24.6208 35.1725C25.592 35.1725 26.3794 34.3851 26.3794 33.4139C26.4287 23.242 32.6852 14.1319 42.1613 10.434Z" fill="white"/>
<path d="M43.8301 22.1852C43.557 21.53 42.9167 21.1033 42.2069 21.1033C41.4971 21.1033 40.8569 21.53 40.5837 22.1852L31.7906 43.2886C31.4167 44.1851 31.8403 45.215 32.7367 45.5889C33.6332 45.9628 34.6631 45.5392 35.037 44.6428L37.5167 38.6898H46.8972L49.3768 44.6428C49.6501 45.2978 50.2903 45.7244 51 45.7243C51.2325 45.725 51.4627 45.6789 51.6771 45.5889C52.1076 45.4094 52.4492 45.0661 52.6266 44.6347C52.8041 44.2033 52.8028 43.7191 52.6232 43.2886L43.8301 22.1852ZM38.9834 35.1726L42.2069 27.4347L45.4305 35.1726H38.9834Z" fill="white"/>
<path fill-rule="evenodd" clip-rule="evenodd" d="M66.8275 42.207H63.3103V24.6208H66.8275C67.7988 24.6208 68.5861 23.8334 68.5861 22.8621C68.5861 21.8909 67.7988 21.1035 66.8275 21.1035H56.2758C55.3045 21.1035 54.5172 21.8909 54.5172 22.8621C54.5172 23.8334 55.3045 24.6208 56.2758 24.6208H59.793V42.207H56.2758C55.3045 42.207 54.5172 42.9943 54.5172 43.9656C54.5172 44.9368 55.3045 45.7242 56.2758 45.7242H66.8275C67.7988 45.7242 68.5861 44.9368 68.5861 43.9656C68.5861 42.9943 67.7988 42.207 66.8275 42.207Z" fill="white"/>
<path d="M5.27586 38.6897C8.18964 38.6897 10.5517 36.3276 10.5517 33.4138C10.5517 30.5 8.18964 28.1379 5.27586 28.1379C2.36208 28.1379 0 30.5 0 33.4138C0 36.3276 2.36208 38.6897 5.27586 38.6897Z" fill="#F0C419"/>
<path d="M8.79298 10.5517C11.7068 10.5517 14.0688 8.18964 14.0688 5.27586C14.0688 2.36208 11.7068 0 8.79298 0C5.8792 0 3.51712 2.36208 3.51712 5.27586C3.51712 8.18964 5.8792 10.5517 8.79298 10.5517Z" fill="#F0C419"/>
<path d="M8.79298 66.8274C11.7068 66.8274 14.0688 64.4653 14.0688 61.5515C14.0688 58.6377 11.7068 56.2756 8.79298 56.2756C5.8792 56.2756 3.51712 58.6377 3.51712 61.5515C3.51712 64.4653 5.8792 66.8274 8.79298 66.8274Z" fill="#F0C419"/>
<path d="M96.7242 38.6897C99.638 38.6897 102 36.3276 102 33.4138C102 30.5 99.638 28.1379 96.7242 28.1379C93.8104 28.1379 91.4483 30.5 91.4483 33.4138C91.4483 36.3276 93.8104 38.6897 96.7242 38.6897Z" fill="#F0C419"/>
<path d="M93.2068 10.5517C96.1206 10.5517 98.4827 8.18964 98.4827 5.27586C98.4827 2.36208 96.1206 0 93.2068 0C90.293 0 87.9309 2.36208 87.9309 5.27586C87.9309 8.18964 90.293 10.5517 93.2068 10.5517Z" fill="#F0C419"/>
<path d="M93.2068 66.8274C96.1206 66.8274 98.4827 64.4653 98.4827 61.5515C98.4827 58.6377 96.1206 56.2756 93.2068 56.2756C90.293 56.2756 87.9309 58.6377 87.9309 61.5515C87.9309 64.4653 90.293 66.8274 93.2068 66.8274Z" fill="#F0C419"/>
</g>
<defs>
<clipPath id="clip0">
<rect width="102" height="102" fill="white"/>
</clipPath>
</defs>
</svg>
