<svg xmlns="http://www.w3.org/2000/svg" width="36.586" height="29.149" viewBox="0 0 36.586 29.149"><defs><style>.a{fill:#3e5668;}.b{fill:#51a7f9;}.c{fill:#3dbcb2;}</style></defs><g transform="translate(0.025 0.025)"><g transform="translate(-0.025 -0.025)"><path class="a" d="M-.583,16.464h-13.7a1.256,1.256,0,0,1-1.245-1.245V1.521A1.256,1.256,0,0,1-14.28.276h7.415a.387.387,0,0,1,.4.4.387.387,0,0,1-.4.4H-14.28a.387.387,0,0,0-.4.4v13.7a.387.387,0,0,0,.4.4h13.7a.387.387,0,0,0,.4-.4V3.049a.387.387,0,0,1,.4-.4h0a.387.387,0,0,1,.4.4h0V15.162A1.191,1.191,0,0,1-.583,16.464Z" transform="translate(15.525 12.685)"/><path class="b" d="M2.19-2.122a.387.387,0,0,1-.4-.4v-8.264a.387.387,0,0,1,.4-.4.208.208,0,0,1,.17.057L10.624-6.99a.392.392,0,0,1,.17.566c-.057.057-.113.17-.17.17L2.36-2.122Zm.4-7.981V-3.2L9.492-6.65Z" transform="translate(12.413 14.744)"/><path class="a" d="M10.125,18.161a.387.387,0,0,1-.4-.4c0-.113.057-.17.113-.283L15.729,10.8a.435.435,0,0,1,.566-.057l.057.057,2.377,2.887a.4.4,0,1,1-.623.509l-2.094-2.49-5.6,6.339A.432.432,0,0,1,10.125,18.161Z" transform="translate(10.987 10.818)"/><path class="a" d="M16.059,17.761a.387.387,0,0,1-.4-.4c0-.113.057-.17.113-.283L24.04,7.629a.435.435,0,0,1,.566-.057l.057.057,1.924,2.547a.4.4,0,1,1-.623.509L24.379,8.535l-7.924,9.056A.752.752,0,0,1,16.059,17.761Z" transform="translate(9.92 11.388)"/><path class="a" d="M24.2,16.476H10.56a1.256,1.256,0,0,1-1.245-1.245V3.062a.4.4,0,0,1,.792,0h0V15.231a.387.387,0,0,0,.4.4H24.2a.387.387,0,0,0,.4-.4h0V1.534a.387.387,0,0,0-.4-.4H16.786a.387.387,0,0,1-.4-.4.387.387,0,0,1,.4-.4H24.2A1.256,1.256,0,0,1,25.446,1.59v13.7A1.209,1.209,0,0,1,24.2,16.476Z" transform="translate(11.061 12.673)"/><path class="c" d="M20.492,8.969a2.21,2.21,0,0,1-2.207-2.207,2.207,2.207,0,1,1,4.415,0h0A2.247,2.247,0,0,1,20.492,8.969Zm0-3.509a1.358,1.358,0,1,0,1.358,1.358h0A1.341,1.341,0,0,0,20.492,5.46Z" transform="translate(9.449 11.917)"/><path class="c" d="M-.809,9.762H-7.884a.387.387,0,0,1-.4-.4.387.387,0,0,1,.4-.4H-.809a.387.387,0,0,1,.4.4A.387.387,0,0,1-.809,9.762Z" transform="translate(14.223 11.123)"/><path class="c" d="M-10.42,16.145a2.21,2.21,0,0,1-2.207-2.207A2.175,2.175,0,0,1-10.42,11.73a2.175,2.175,0,0,1,2.207,2.207h0A2.247,2.247,0,0,1-10.42,16.145Zm0-3.509a1.377,1.377,0,0,0-1.358,1.358,1.377,1.377,0,0,0,1.358,1.358,1.377,1.377,0,0,0,1.358-1.358h0A1.377,1.377,0,0,0-10.42,12.636Z" transform="translate(15.004 10.627)"/><path class="c" d="M-1.795,16.145A2.21,2.21,0,0,1-4,13.937,2.175,2.175,0,0,1-1.795,11.73,2.175,2.175,0,0,1,.413,13.937h0A2.247,2.247,0,0,1-1.795,16.145Zm0-3.509a1.377,1.377,0,0,0-1.358,1.358,1.377,1.377,0,0,0,1.358,1.358A1.377,1.377,0,0,0-.436,13.994h0A1.377,1.377,0,0,0-1.795,12.636Z" transform="translate(13.454 10.627)"/><path class="c" d="M.741,13.373a.387.387,0,0,1-.4-.4V6.468a.387.387,0,0,1,.4-.4.387.387,0,0,1,.4.4v6.509A.387.387,0,0,1,.741,13.373Z" transform="translate(12.673 11.644)"/><path class="a" d="M13,.663H-4.206A1.256,1.256,0,0,1-5.451-.583v-13.7a1.256,1.256,0,0,1,1.245-1.245H13a1.256,1.256,0,0,1,1.245,1.245v13.7A1.221,1.221,0,0,1,13,.663ZM-4.206-14.676a.387.387,0,0,0-.4.4v13.7a.387.387,0,0,0,.4.4H13a.387.387,0,0,0,.4-.4v-13.7a.387.387,0,0,0-.4-.4H-4.206Z" transform="translate(13.715 15.525)"/><path class="c" d="M-7.884,13.373a.387.387,0,0,1-.4-.4V6.468a.387.387,0,0,1,.4-.4H-.809a.387.387,0,0,1,.4.4.387.387,0,0,1-.4.4H-7.488v6.113A.387.387,0,0,1-7.884,13.373Z" transform="translate(14.223 11.644)"/></g></g></svg>