<svg width="85" height="85" viewBox="0 0 85 85" fill="none" xmlns="http://www.w3.org/2000/svg">
<path d="M45.1673 79.6441C43.3503 79.6441 42.2666 77.8438 42.8269 76.3023L53.496 46.9617C53.9662 45.6692 55.3955 45.0026 56.6879 45.4721C57.9804 45.9422 58.647 47.3715 58.1769 48.664L47.5078 78.004C47.1394 79.0157 46.1848 79.6441 45.1673 79.6441Z" fill="#3AB4FB"/>
<path d="M71.8408 79.644C70.8265 79.644 69.8732 79.0195 69.5029 78.0117L58.7268 48.6711C58.2528 47.3799 58.9155 45.9493 60.206 45.4753C61.4965 45.0006 62.9278 45.6634 63.4018 46.9539L74.1779 76.2945C74.7849 77.9469 73.5398 79.644 71.8408 79.644Z" fill="#1D9CFD"/>
<path d="M77.1759 5.3125H39.8321C35.5111 5.3125 32.0079 8.81569 32.0079 13.1366V42.4786C32.0079 46.7995 35.5111 50.3027 39.8321 50.3027H77.1759C81.4968 50.3027 85 46.7995 85 42.4786V13.1366C85 8.81569 81.4968 5.3125 77.1759 5.3125Z" fill="#EFF6FE"/>
<path d="M77.1759 5.3125H58.1768V50.3027H77.1759C81.4968 50.3027 85 46.7995 85 42.4786V13.1366C85 8.81569 81.4968 5.3125 77.1759 5.3125Z" fill="#D9E4EF"/>
<path d="M26.6727 21.1398C26.6727 27.1299 21.8168 31.9859 15.8266 31.9859C9.83643 31.9859 4.98047 27.1299 4.98047 21.1398C4.98047 15.1489 9.83643 10.293 15.8266 10.293C21.8168 10.293 26.6727 15.1489 26.6727 21.1398Z" fill="#FFCFBE"/>
<path d="M40.0525 47.3728C38.8223 46.7574 38.3243 45.2619 38.9391 44.0317L45.6076 30.6947C46.223 29.4645 47.7191 28.9665 48.9486 29.5812C50.1788 30.1967 50.6769 31.6921 50.0621 32.9223L43.3936 46.2587C42.7775 47.4908 41.2808 47.9869 40.0525 47.3728Z" fill="#FFB826"/>
<path d="M26.674 21.1397C26.674 27.1299 21.8181 31.9859 15.826 31.9859V10.2923C21.8181 10.2923 26.674 15.1483 26.674 21.1397Z" fill="#F9BCAA"/>
<path d="M71.8407 19.6294H45.1673C43.7918 19.6294 42.677 18.514 42.677 17.1392C42.677 15.7637 43.7918 14.6489 45.1673 14.6489H71.8407C73.2155 14.6489 74.3309 15.7637 74.3309 17.1392C74.3309 18.514 73.2161 19.6294 71.8407 19.6294Z" fill="#3AB4FB"/>
<path d="M71.8407 30.2979H60.667C59.2916 30.2979 58.1768 29.1831 58.1768 27.8076C58.1768 26.4322 59.2916 25.3174 60.667 25.3174H71.8407C73.2161 25.3174 74.3309 26.4322 74.3309 27.8076C74.3309 29.1831 73.2161 30.2979 71.8407 30.2979Z" fill="#1D9CFD"/>
<path d="M71.8407 40.9669H60.667C59.2916 40.9669 58.1768 39.8515 58.1768 38.4767C58.1768 37.1012 59.2916 35.9865 60.667 35.9865H71.8407C73.2161 35.9865 74.3309 37.1012 74.3309 38.4767C74.3309 39.8515 73.2161 40.9669 71.8407 40.9669Z" fill="#1D9CFD"/>
<path d="M71.8407 14.6489H58.1768V19.6294H71.8407C73.2161 19.6294 74.3309 18.514 74.3309 17.1392C74.3309 15.7637 73.2161 14.6489 71.8407 14.6489Z" fill="#1D9CFD"/>
<path d="M23.8284 79.6434H7.82478C6.44932 79.6434 5.33455 78.5286 5.33455 77.1532V63.2332C2.23667 62.191 0 59.2592 0 55.8143V47.8125C0 43.5785 1.64783 39.6032 4.63936 36.6194C7.57446 33.6765 11.6535 31.9859 15.8273 31.9859H18.0276C22.3959 31.9859 24.9562 33.5857 28.5443 35.3698C32.4956 37.3347 37.4255 39.786 40.5694 41.3522C43.4702 42.7938 44.8592 46.1744 43.8152 49.2347C43.8119 49.2444 43.8087 49.2541 43.8054 49.2638C43.177 51.1224 41.7685 52.6198 39.9404 53.3721C38.1064 54.1185 36.0513 54.0394 34.2913 53.1594C31.7816 51.9039 28.6798 50.3533 26.3193 49.1737V77.1532C26.3187 78.5286 25.2039 79.6434 23.8284 79.6434Z" fill="#FF7579"/>
<path d="M40.5694 41.3522C37.4255 39.786 32.4956 37.3347 28.5437 35.3698C24.9562 33.5857 22.3959 31.9859 18.0276 31.9859H15.8266C15.8266 31.9859 15.8266 31.9859 15.826 31.9859V79.6434H23.8284C25.2039 79.6434 26.3187 78.5286 26.3187 77.1532V49.1737C28.6798 50.3533 31.7816 51.9039 34.2913 53.1594C36.0507 54.0394 38.1064 54.1179 39.9397 53.3721C41.7678 52.6198 43.177 51.1224 43.8054 49.2632C43.8087 49.2535 43.8119 49.2437 43.8152 49.234C44.8592 46.1744 43.4702 42.7938 40.5694 41.3522Z" fill="#FE4A60"/>
</svg>
