<svg width="27" height="27" viewBox="0 0 27 27" fill="none" xmlns="http://www.w3.org/2000/svg">
<path fill-rule="evenodd" clip-rule="evenodd" d="M13.2064 2.25C19.2476 2.25 24.1616 7.164 24.1616 13.2052C24.1616 16.0555 23.0678 18.6551 21.2779 20.6061L24.8 24.1208C25.1296 24.4504 25.1307 24.9837 24.8011 25.3133C24.6368 25.4798 24.4197 25.5619 24.2037 25.5619C23.9888 25.5619 23.7728 25.4798 23.6075 25.3155L20.0428 21.7609C18.1677 23.2626 15.7901 24.1616 13.2064 24.1616C7.16513 24.1616 2.25 19.2465 2.25 13.2052C2.25 7.164 7.16513 2.25 13.2064 2.25ZM13.2064 3.9375C8.0955 3.9375 3.9375 8.09437 3.9375 13.2052C3.9375 18.3161 8.0955 22.4741 13.2064 22.4741C18.3161 22.4741 22.4741 18.3161 22.4741 13.2052C22.4741 8.09437 18.3161 3.9375 13.2064 3.9375Z" fill="#6A6A6A"/>
</svg>
