<svg width="85" height="85" viewBox="0 0 85 85" fill="none" xmlns="http://www.w3.org/2000/svg">
<g clip-path="url(#clip0)">
<path d="M83.2748 13.8842H1.72523L0 14.0502V65.4948C0 66.4394 0.765664 67.2051 1.71029 67.2051H9.33655V59.0791C9.33655 58.6991 9.64567 58.39 10.0257 58.39H16.1764C16.54 58.39 16.8788 58.1945 17.0608 57.8795L19.4482 53.7442C19.5108 53.6355 19.6234 53.5707 19.7489 53.5707C19.8742 53.5707 19.9868 53.6357 20.0494 53.7442L22.4368 57.8795C22.6188 58.1945 22.9576 58.39 23.3212 58.39H74.9743C75.3543 58.39 75.6634 58.6991 75.6634 59.0791V67.2051H83.2897C84.2343 67.2051 85 66.4394 85 65.4948V14.0502L83.2748 13.8842Z" fill="#FFF3DE"/>
<path d="M9.33655 59.0791C9.33655 58.8326 9.46787 58.6176 9.66294 58.4958V14.0502H0V65.4948C0 66.4394 0.765664 67.2051 1.71029 67.2051H9.33655V59.0791Z" fill="#FFE5C2"/>
<path d="M35.7603 52.4144H49.2398C51.7674 52.4144 54.0534 53.4633 55.6896 55.1469V30.6546C55.6896 24.8719 51.0019 20.1843 45.2194 20.1843H39.7807C33.998 20.1843 29.3104 24.8721 29.3104 30.6546V55.1469C30.9467 53.4633 33.2327 52.4144 35.7603 52.4144Z" fill="#FED402"/>
<path d="M33.6666 44.1937H31.2775C30.5717 44.1937 29.9044 44.0304 29.3102 43.7404V55.147C30.8037 53.6105 32.8387 52.6051 35.1045 52.4409V46.6111C34.5129 45.8864 34.0265 45.0728 33.6666 44.1937Z" fill="#FAC600"/>
<path d="M31.2784 35.2159H33.0065C33.2036 34.0452 33.9926 33.0467 35.1054 32.5907V30.6548C35.1054 24.9319 39.6978 20.2843 45.3979 20.189C45.3385 20.188 45.2797 20.1845 45.2201 20.1845H39.7814C33.9988 20.1845 29.3112 24.8723 29.3112 30.6548V35.6695C29.9052 35.3791 30.5727 35.2159 31.2784 35.2159Z" fill="#FAC600"/>
<path d="M49.2396 52.2484H45.5774V53.7935C45.5774 55.4905 44.1969 56.8711 42.4998 56.8711C40.8028 56.8711 39.4223 55.4905 39.4223 53.7935V52.2484H35.7601C31.7581 52.2484 28.3571 54.8143 27.1075 58.39H57.8923C56.6426 54.8143 53.2417 52.2484 49.2396 52.2484Z" fill="#FD4755"/>
<path d="M39.4223 52.2484H35.7601C31.7581 52.2484 28.3571 54.8143 27.1075 58.39H32.5804C33.6366 55.3682 36.2291 53.0679 39.4224 52.4275V52.2484H39.4223Z" fill="#FB2B3A"/>
<path d="M53.7222 35.2159H51.8769V40.5807C51.8769 41.8607 51.6184 43.0812 51.1521 44.1938H53.7222C56.2013 44.1938 58.2111 42.1841 58.2111 39.7049C58.2112 37.2257 56.2015 35.2159 53.7222 35.2159Z" fill="#FFBD86"/>
<path d="M33.1227 40.5805V35.7911C33.1227 35.5955 33.1415 35.4035 33.1745 35.2157H31.2775C28.7984 35.2157 26.7886 37.2255 26.7886 39.7046C26.7886 42.1837 28.7984 44.1935 31.2775 44.1935H33.8476C33.3812 43.081 33.1227 41.8605 33.1227 40.5805Z" fill="#F6A96C"/>
<path d="M42.4999 49.9577C41.3602 49.9577 40.2677 49.7529 39.2563 49.3788V53.7935C39.2563 55.585 40.7084 57.0371 42.4999 57.0371C44.2914 57.0371 45.7435 55.5848 45.7435 53.7935V49.3788C44.7321 49.7529 43.6396 49.9577 42.4999 49.9577Z" fill="#FFBD86"/>
<path d="M42.0019 53.7935V49.9443C41.0416 49.8938 40.1192 49.6981 39.2563 49.3788V53.7935C39.2563 55.585 40.7084 57.0371 42.4999 57.0371C42.9913 57.0371 43.4553 56.9248 43.8727 56.7292C42.7685 56.2119 42.0019 55.0936 42.0019 53.7935Z" fill="#F6A96C"/>
<path d="M45.9346 28.987L35.3274 32.5067C33.9119 32.9763 32.9565 34.3 32.9565 35.7913V40.5807C32.9565 45.8514 37.2291 50.1239 42.4997 50.1239C47.7704 50.1239 52.043 45.8514 52.043 40.5807V33.2934C52.043 33.2114 52.0408 33.1297 52.0368 33.0487C51.8837 30.0276 48.8055 28.0342 45.9346 28.987Z" fill="#FED2A4"/>
<path d="M37.3534 40.5805V31.8343L35.3275 32.5065C33.9121 32.9761 32.9567 34.2998 32.9567 35.7911V40.5805C32.9567 45.8512 37.2292 50.1237 42.4999 50.1237C43.2579 50.1237 43.9952 50.0346 44.7021 49.8672C40.4898 48.8755 37.3534 45.0956 37.3534 40.5805Z" fill="#FFBD86"/>
<path d="M42.4995 40.1341C42.2005 40.1341 41.9007 40.027 41.6621 39.81L40.5928 38.8375C40.1484 38.4332 40.0559 37.7693 40.373 37.2592L41.4423 35.5383C41.8053 34.9542 42.5729 34.7748 43.1571 35.1378C43.7412 35.5007 43.9205 36.2686 43.5575 36.8526L43.0354 37.6928L43.3377 37.9677C43.8464 38.4304 43.8838 39.2178 43.4211 39.7267C43.1752 39.9968 42.838 40.1341 42.4995 40.1341Z" fill="#C57A44"/>
<path d="M37.5091 38.1902C36.8215 38.1902 36.264 37.6327 36.264 36.9451V35.3545C36.264 34.6669 36.8215 34.1094 37.5091 34.1094C38.1967 34.1094 38.7542 34.6669 38.7542 35.3545V36.9451C38.7542 37.6327 38.1967 38.1902 37.5091 38.1902Z" fill="#C57A44"/>
<path d="M47.491 38.1902C46.8033 38.1902 46.2458 37.6327 46.2458 36.9451V35.3545C46.2458 34.6669 46.8033 34.1094 47.491 34.1094C48.1786 34.1094 48.7361 34.6669 48.7361 35.3545V36.9451C48.7361 37.6327 48.1786 38.1902 47.491 38.1902Z" fill="#C57A44"/>
<path d="M42.4999 46.4983C40.8786 46.4983 39.5643 45.1839 39.5643 43.5626V42.8627C39.5643 42.4862 39.8694 42.181 40.2459 42.181H44.7539C45.1304 42.181 45.4356 42.4862 45.4356 42.8627V43.5626C45.4356 45.1839 44.1212 46.4983 42.4999 46.4983Z" fill="#FD8087"/>
<path d="M41.8317 43.5625V42.8626C41.8317 42.486 42.1368 42.1809 42.5134 42.1809H40.2459C39.8694 42.1809 39.5643 42.486 39.5643 42.8626V43.5625C39.5643 45.1838 40.8786 46.4981 42.4999 46.4981C42.9013 46.4981 43.2832 46.416 43.6316 46.2699C42.5743 45.8259 41.8317 44.7812 41.8317 43.5625Z" fill="#FE646F"/>
<path d="M79.9176 38.6237H71.095C70.7806 38.6237 70.5258 38.3689 70.5258 38.0544V32.9211C70.5258 32.6066 70.7806 32.3518 71.095 32.3518H79.9176C80.232 32.3518 80.4869 32.6066 80.4869 32.9211V38.0544C80.4867 38.3689 80.2319 38.6237 79.9176 38.6237Z" fill="#26A6FE"/>
<path d="M75.3185 38.0546V32.9212C75.3185 32.6069 75.5733 32.3519 75.8877 32.3519H71.095C70.7806 32.3519 70.5258 32.6068 70.5258 32.9212V38.0546C70.5258 38.3688 70.7806 38.6238 71.095 38.6238H75.8877C75.5733 38.6238 75.3185 38.3688 75.3185 38.0546Z" fill="#0593FC"/>
<path d="M20.6087 35.5696H6.41356C5.94124 35.5696 5.55841 35.1868 5.55841 34.7145V20.5193C5.55841 20.047 5.94124 19.6642 6.41356 19.6642H20.6087C21.081 19.6642 21.4639 20.047 21.4639 20.5193V34.7145C21.4639 35.1868 21.081 35.5696 20.6087 35.5696Z" fill="#97D729"/>
<path d="M11.0313 34.7145V20.5193C11.0313 20.047 11.4141 19.6642 11.8864 19.6642H6.41356C5.94124 19.6642 5.55841 20.047 5.55841 20.5193V34.7145C5.55841 35.1868 5.94124 35.5696 6.41356 35.5696H11.8864C11.4141 35.5696 11.0313 35.1868 11.0313 34.7145Z" fill="#8BC727"/>
<path d="M17.632 22.6847H9.3902C8.70256 22.6847 8.14508 23.2422 8.14508 23.9298V25.9542C8.14508 26.6418 8.70256 27.1993 9.3902 27.1993C10.0778 27.1993 10.6353 26.6418 10.6353 25.9542V25.1749H12.2661V30.0591H11.8484C11.1608 30.0591 10.6033 30.6166 10.6033 31.3042C10.6033 31.9919 11.1608 32.5493 11.8484 32.5493H15.1739C15.8615 32.5493 16.419 31.9919 16.419 31.3042C16.419 30.6166 15.8615 30.0591 15.1739 30.0591H14.7562V25.1749H16.3869V25.9542C16.3869 26.6418 16.9444 27.1993 17.632 27.1993C18.3197 27.1993 18.8772 26.6418 18.8772 25.9542V23.9298C18.8772 23.2422 18.3197 22.6847 17.632 22.6847Z" fill="#78A91F"/>
<path d="M22.5806 57.7965L20.1931 53.6612C19.9956 53.3192 19.502 53.3192 19.3045 53.6612L16.917 57.7965C16.7643 58.0611 16.4819 58.224 16.1764 58.224H10.0257C9.55336 58.224 9.17053 58.6068 9.17053 59.0791V78.6681C9.17053 79.1404 9.55336 79.5233 10.0257 79.5233H74.9743C75.4466 79.5233 75.8295 79.1404 75.8295 78.6681V59.0791C75.8295 58.6068 75.4466 58.224 74.9743 58.224H23.3212C23.0156 58.224 22.7333 58.0611 22.5806 57.7965Z" fill="#D8ECFE"/>
<path d="M14.9648 78.6683V59.0791C14.9648 58.6068 15.3476 58.224 15.82 58.224H10.0257C9.55336 58.224 9.17053 58.6068 9.17053 59.0791V78.6682C9.17053 79.1405 9.55336 79.5233 10.0257 79.5233H15.82C15.3476 79.5235 14.9648 79.1405 14.9648 78.6683Z" fill="#C4E2FF"/>
<path d="M69.3511 65.4841H33.1137C32.4261 65.4841 31.8686 64.9267 31.8686 64.239C31.8686 63.5514 32.4261 62.9939 33.1137 62.9939H69.3511C70.0387 62.9939 70.5962 63.5514 70.5962 64.239C70.5962 64.9267 70.0387 65.4841 69.3511 65.4841Z" fill="#8AC9FE"/>
<path d="M28.4204 65.4841H15.6488C14.9612 65.4841 14.4037 64.9267 14.4037 64.239C14.4037 63.5514 14.9612 62.9939 15.6488 62.9939H28.4204C29.108 62.9939 29.6655 63.5514 29.6655 64.239C29.6655 64.9267 29.108 65.4841 28.4204 65.4841Z" fill="#8AC9FE"/>
<path d="M69.351 70.1188H56.7599C56.0723 70.1188 55.5148 69.5613 55.5148 68.8737C55.5148 68.186 56.0723 67.6285 56.7599 67.6285H69.351C70.0387 67.6285 70.5961 68.186 70.5961 68.8737C70.5961 69.5613 70.0387 70.1188 69.351 70.1188Z" fill="#8AC9FE"/>
<path d="M52.2473 70.1188H15.649C14.9614 70.1188 14.4039 69.5613 14.4039 68.8737C14.4039 68.186 14.9614 67.6285 15.649 67.6285H52.2475C52.9351 67.6285 53.4926 68.186 53.4926 68.8737C53.4926 69.5613 52.9349 70.1188 52.2473 70.1188Z" fill="#8AC9FE"/>
<path d="M43.8737 74.7532H25.3519C24.6642 74.7532 24.1068 74.1958 24.1068 73.5081C24.1068 72.8205 24.6642 72.263 25.3519 72.263H43.8737C44.5614 72.263 45.1188 72.8205 45.1188 73.5081C45.1188 74.1958 44.5614 74.7532 43.8737 74.7532Z" fill="#8AC9FE"/>
<path d="M20.8391 74.7532H15.649C14.9613 74.7532 14.4039 74.1958 14.4039 73.5081C14.4039 72.8205 14.9613 72.263 15.649 72.263H20.8393C21.5269 72.263 22.0844 72.8205 22.0844 73.5081C22.0844 74.1958 21.5268 74.7532 20.8391 74.7532Z" fill="#8AC9FE"/>
<path d="M85 14.0502H0V7.18679C0 6.24217 0.765664 5.4765 1.71029 5.4765H83.2897C84.2343 5.4765 85 6.24217 85 7.18679V14.0502Z" fill="#8379C1"/>
<path d="M11.3732 5.4765H1.71029C0.765664 5.4765 0 6.24233 0 7.18679V14.0502H9.66294V7.18679C9.66294 6.24233 10.4288 5.4765 11.3732 5.4765Z" fill="#6E61B6"/>
<path d="M6.40228 10.9044C7.08994 10.9044 7.6474 10.3469 7.6474 9.65924C7.6474 8.97158 7.08994 8.41412 6.40228 8.41412C5.71462 8.41412 5.15717 8.97158 5.15717 9.65924C5.15717 10.3469 5.71462 10.9044 6.40228 10.9044Z" fill="#FD4755"/>
<path d="M10.2206 10.9044C10.9083 10.9044 11.4658 10.3469 11.4658 9.65924C11.4658 8.97158 10.9083 8.41412 10.2206 8.41412C9.53298 8.41412 8.97552 8.97158 8.97552 9.65924C8.97552 10.3469 9.53298 10.9044 10.2206 10.9044Z" fill="#FED402"/>
<path d="M14.039 10.9044C14.7267 10.9044 15.2841 10.3469 15.2841 9.65924C15.2841 8.97158 14.7267 8.41412 14.039 8.41412C13.3513 8.41412 12.7939 8.97158 12.7939 9.65924C12.7939 10.3469 13.3513 10.9044 14.039 10.9044Z" fill="#8BC727"/>
<path d="M79.9958 10.9044H74.9951C74.3074 10.9044 73.7499 10.3469 73.7499 9.65924C73.7499 8.9716 74.3074 8.41412 74.9951 8.41412H79.9958C80.6834 8.41412 81.2409 8.9716 81.2409 9.65924C81.2409 10.3469 80.6836 10.9044 79.9958 10.9044Z" fill="#54469C"/>
<path d="M79.9956 20.9093H71.0168C70.3292 20.9093 69.7717 20.3518 69.7717 19.6642C69.7717 18.9765 70.3292 18.4191 71.0168 18.4191H79.9956C80.6833 18.4191 81.2408 18.9765 81.2408 19.6642C81.2408 20.3518 80.6834 20.9093 79.9956 20.9093Z" fill="#FFBD86"/>
<path d="M79.9956 24.8429H71.0168C70.3292 24.8429 69.7717 24.2854 69.7717 23.5978C69.7717 22.9101 70.3292 22.3527 71.0168 22.3527H79.9956C80.6833 22.3527 81.2408 22.9101 81.2408 23.5978C81.2408 24.2854 80.6834 24.8429 79.9956 24.8429Z" fill="#FFBD86"/>
<path d="M79.9956 28.7764H71.0168C70.3292 28.7764 69.7717 28.2189 69.7717 27.5313C69.7717 26.8437 70.3292 26.2862 71.0168 26.2862H79.9956C80.6833 26.2862 81.2408 26.8437 81.2408 27.5313C81.2408 28.2189 80.6834 28.7764 79.9956 28.7764Z" fill="#FFBD86"/>
</g>
<defs>
<clipPath id="clip0">
<rect width="85" height="85" fill="white"/>
</clipPath>
</defs>
</svg>
