<svg xmlns="http://www.w3.org/2000/svg" viewBox="0 0 96.81 96.8"><defs><style>.cls-1{fill:#3e5668;}.cls-2{fill:#3ebbb3;}.cls-3{fill:#51a7f9;}</style></defs><title>Asset 50</title><g id="Layer_2" data-name="Layer 2"><g id="Layer_1-2" data-name="Layer 1"><path class="cls-1" d="M67.3,73.64A5.46,5.46,0,0,1,63.43,72L19.24,27.84a5.46,5.46,0,0,1,0-7.73l5.52-5.53a.78.78,0,0,1,1.11,1.11l-5.53,5.52a3.92,3.92,0,0,0,0,5.53l44.2,44.19a4,4,0,0,0,5.52,0L82.9,58.09A.78.78,0,0,1,84,59.2L71.16,72A5.42,5.42,0,0,1,67.3,73.64Z"/><path class="cls-1" d="M91.6,62.32a.82.82,0,0,1-.26,0L57.09,50.12a.79.79,0,0,1-.29-.18L23.66,16.79a.77.77,0,0,1,0-1.1L39.13.22a.8.8,0,0,1,1.1,0L96.58,56.57a.76.76,0,0,1,.23.55.79.79,0,0,1-.23.55L92.16,62.1A.82.82,0,0,1,91.6,62.32ZM57.78,48.71,91.4,60.64l3.52-3.52L39.68,1.88,25.32,16.24Z"/><path class="cls-1" d="M78.35,71.16a.78.78,0,0,1-.55-.23l-3.32-3.31a.78.78,0,0,1,0-1.11L80,61a.78.78,0,0,1,1.11,0l3.31,3.31a.78.78,0,0,1,0,1.11L78.9,70.93A.78.78,0,0,1,78.35,71.16Zm-2.21-4.09,2.21,2.21,4.42-4.43-2.21-2.2Z"/><path class="cls-2" d="M54,37a3.12,3.12,0,1,1,2.21-.91h0A3.11,3.11,0,0,1,54,37Zm0-4.68a1.55,1.55,0,0,0-1.56,1.56,1.51,1.51,0,0,0,.46,1.1,1.56,1.56,0,0,0,2.21,0h0a1.54,1.54,0,0,0,.45-1.1A1.54,1.54,0,0,0,54,32.36Z"/><path class="cls-3" d="M46.31,29.31a3.09,3.09,0,0,1-2.21-.91l-10-9.95A3.13,3.13,0,0,1,38.57,14l10,10a3.12,3.12,0,0,1-2.21,5.33Zm-10-14.63a1.52,1.52,0,0,0-1.1.46,1.56,1.56,0,0,0,0,2.21l9.94,9.94h0a1.57,1.57,0,0,0,2.67-1.11,1.55,1.55,0,0,0-.46-1.1l-9.94-9.95A1.59,1.59,0,0,0,36.36,14.68Z"/><path class="cls-1" d="M91.6,62.32a.74.74,0,0,1-.55-.23L34.71,5.75a.78.78,0,0,1,1.1-1.11L92.16,61a.78.78,0,0,1-.56,1.33Z"/><path class="cls-1" d="M7,96.8H.78A.78.78,0,0,1,0,96V83.52a.78.78,0,0,1,1.56,0V95.24H6.25V59.3H1.56v3.9A.78.78,0,1,1,0,63.2V58.52a.78.78,0,0,1,.78-.78H7a.78.78,0,0,1,.78.78V96A.78.78,0,0,1,7,96.8Z"/><path class="cls-1" d="M35.16,84.3a7,7,0,1,1,7-7A7,7,0,0,1,35.16,84.3Zm0-12.5a5.47,5.47,0,1,0,5.46,5.47A5.47,5.47,0,0,0,35.16,71.8Z"/><path class="cls-1" d="M35.16,49.92a7,7,0,0,1-7-7,6.94,6.94,0,0,1,2.2-5.1.78.78,0,0,1,1.07,1.13,5.47,5.47,0,1,0,7.73,7.73.79.79,0,0,1,1.14,1.08A7,7,0,0,1,35.16,49.92Z"/><path class="cls-1" d="M7,84.3a.77.77,0,0,1-.52-.2.8.8,0,0,1-.26-.58V71a.83.83,0,0,1,.26-.59.84.84,0,0,1,.61-.19L30.2,72.8A.79.79,0,1,1,30,74.36L7.81,71.89V82.65L30,80.18a.78.78,0,1,1,.18,1.55L7.12,84.29Z"/><path class="cls-1" d="M32,72.64a.78.78,0,0,1-.78-.79V48.3a.78.78,0,1,1,1.56,0V71.85A.78.78,0,0,1,32,72.64Z"/><path class="cls-1" d="M38.28,72.64a.78.78,0,0,1-.78-.79V48.3a.78.78,0,1,1,1.56,0V71.85A.78.78,0,0,1,38.28,72.64Z"/><path class="cls-1" d="M35.16,81.17a3.91,3.91,0,1,1,3.9-3.9A3.91,3.91,0,0,1,35.16,81.17Zm0-6.25a2.35,2.35,0,1,0,2.34,2.35A2.35,2.35,0,0,0,35.16,74.92Z"/><path class="cls-1" d="M.78,76.49A.78.78,0,0,1,0,75.7V67.89a.78.78,0,0,1,1.56,0V75.7A.78.78,0,0,1,.78,76.49Z"/></g></g></svg>