<svg xmlns="http://www.w3.org/2000/svg" width="43.254" height="38.175" viewBox="0 0 43.254 38.175"><defs><style>.a{fill:#3e5668;}.b{fill:#51a7f9;}</style></defs><path class="a" d="M34.509,8.51a2.656,2.656,0,0,0-.781.078,6.76,6.76,0,0,0-6.48-4.528,6.6,6.6,0,0,0-3.591,1.015A8.7,8.7,0,0,0,15.771,0,8.564,8.564,0,0,0,7.183,8.588a12.767,12.767,0,0,0,.156,1.718A7.726,7.726,0,0,0,0,18.035a7.627,7.627,0,0,0,7.183,7.651h3.045V24.594H7.417a6.64,6.64,0,0,1,.312-13.273h.312a.675.675,0,0,0,.468-.234.516.516,0,0,0,.078-.468A6.576,6.576,0,0,1,8.276,8.51a7.514,7.514,0,0,1,7.573-7.5,7.67,7.67,0,0,1,7.1,5c.078.156.156.312.39.312a.516.516,0,0,0,.468-.078A5.784,5.784,0,0,1,32.87,9.291a.618.618,0,0,0,.625.39A5.531,5.531,0,0,1,34.587,9.6a7.5,7.5,0,0,1,1.171,14.912v1.093a8.6,8.6,0,0,0,7.5-8.51A8.907,8.907,0,0,0,34.509,8.51Z"/><g transform="translate(9.246 10.701)"><g transform="translate(0 0)"><g transform="translate(0 0)"><path class="a" d="M22.255,8.172,13.8-.232a5.209,5.209,0,0,0-3.771-1.562A5.3,5.3,0,0,0,6.255-.232l-8.35,8.4a5.209,5.209,0,0,0-1.562,3.771,5.3,5.3,0,0,0,1.562,3.771l8.4,8.4a5.209,5.209,0,0,0,3.771,1.562,5.3,5.3,0,0,0,3.771-1.562l8.4-8.4a5.209,5.209,0,0,0,1.562-3.771A5.534,5.534,0,0,0,22.255,8.172Zm-.808,6.734-8.4,8.458A4.114,4.114,0,0,1,10.08,24.6a4.025,4.025,0,0,1-2.963-1.239L.653,16.9H6.2l1.832,3.232h4.04l2.047-3.5-2.047-3.5H8.033L6.2,16.361H.006l-1.347-1.455A4.114,4.114,0,0,1-2.58,11.943,4.025,4.025,0,0,1-1.341,8.98L7.063.522A4.114,4.114,0,0,1,10.026-.717,4.025,4.025,0,0,1,12.989.522l6.68,6.626h-5.71L12.127,3.916H8.087L6.04,7.418l2.047,3.5h4.04l1.832-3.232h6.3L21.5,8.926a4.114,4.114,0,0,1,1.239,2.963A4.423,4.423,0,0,1,21.447,14.906ZM7.279,16.576l1.4-2.424h2.8l1.4,2.424L11.481,19H8.68Zm5.6-9.158-1.4,2.424H8.68l-1.4-2.424,1.4-2.424h2.8Z" transform="translate(3.657 1.794)"/><path class="b" d="M15.45,12.351,14.1,14.667H8.878L7.531,12.351H4.46L2.9,15.045,4.46,17.738H7.531l1.347-2.37H14.1l1.347,2.37h3.125l1.562-2.694-1.562-2.694Z" transform="translate(2.22 -1.307)"/></g></g></g></svg>