<svg width="85" height="85" viewBox="0 0 85 85" fill="none" xmlns="http://www.w3.org/2000/svg">
<g clip-path="url(#clip0)">
<path d="M31.5121 53.4879L29.7513 51.727L22.7078 58.7705L24.4687 60.5313L26.2295 62.2922L33.273 55.2487L31.5121 53.4879Z" fill="#F0DBD8"/>
<path d="M24.4599 60.5277L31.5023 53.4853L33.2629 55.2459L26.2205 62.2883L24.4599 60.5277Z" fill="#D9C3C3"/>
<path d="M52.6424 64.7307C70.5215 64.7307 85.0154 50.2367 85.0154 32.3576C85.0154 14.4785 70.5215 -0.0154419 52.6424 -0.0154419C34.7633 -0.0154419 20.2693 14.4785 20.2693 32.3576C20.2693 50.2367 34.7633 64.7307 52.6424 64.7307Z" fill="#80664D"/>
<path d="M75.5336 55.2486C88.1555 42.6268 88.1555 22.088 75.5336 9.46619L29.7513 55.2486C42.373 67.8705 62.9118 67.8705 75.5336 55.2486Z" fill="#594135"/>
<path d="M52.6424 59.7502C67.7709 59.7502 80.035 47.4861 80.035 32.3576C80.035 17.2291 67.7709 4.96503 52.6424 4.96503C37.5139 4.96503 25.2498 17.2291 25.2498 32.3576C25.2498 47.4861 37.5139 59.7502 52.6424 59.7502Z" fill="#FFEA80"/>
<path d="M72.012 51.727C82.6925 41.0466 82.6925 23.6684 72.012 12.9881L33.2731 51.727C43.9534 62.4075 61.3316 62.4075 72.012 51.727Z" fill="#FFCC66"/>
<path d="M74.4199 30.6966C74.0259 30.2565 64.6195 19.9064 52.6425 19.9064C40.6654 19.9064 31.2591 30.2564 30.8652 30.6966L29.3769 32.3576L30.8652 34.0186C31.2591 34.4587 40.6656 44.8088 52.6426 44.8088C64.6197 44.8088 74.0261 34.4587 74.4201 34.0186L75.9084 32.3576L74.4199 30.6966Z" fill="#F9F5F3"/>
<path d="M42.5301 42.4698C45.535 43.8335 48.9674 44.8086 52.6425 44.8086C64.6195 44.8086 74.0259 34.4586 74.4199 34.0185L75.9082 32.3575L74.4199 30.6965C74.1468 30.3913 69.5429 25.3257 62.7548 22.2451L42.5301 42.4698Z" fill="#F0DBD8"/>
<path d="M26.2295 58.7705L22.7078 55.2487L0 77.9566L3.52169 81.4783L7.04338 85L29.7513 62.2922L26.2295 58.7705Z" fill="#F25555"/>
<path d="M3.5144 81.4708L26.2188 58.7664L29.74 62.2876L7.0356 84.992L3.5144 81.4708Z" fill="#D93752"/>
<path d="M52.6424 39.8283C56.7683 39.8283 60.1131 36.4836 60.1131 32.3576C60.1131 28.2316 56.7683 24.8869 52.6424 24.8869C48.5164 24.8869 45.1717 28.2316 45.1717 32.3576C45.1717 36.4836 48.5164 39.8283 52.6424 39.8283Z" fill="#57D9AD"/>
<path d="M47.3598 37.6402C50.2729 40.5531 55.012 40.5531 57.9251 37.6402C60.838 34.7271 60.838 29.988 57.9251 27.075L47.3598 37.6402Z" fill="#26BFA6"/>
<path d="M52.6424 34.8478C54.0177 34.8478 55.1326 33.7329 55.1326 32.3576C55.1326 30.9823 54.0177 29.8674 52.6424 29.8674C51.267 29.8674 50.1521 30.9823 50.1521 32.3576C50.1521 33.7329 51.267 34.8478 52.6424 34.8478Z" fill="#80664D"/>
<path d="M52.6424 34.8478C54.0164 34.8478 55.1326 33.7315 55.1326 32.3576C55.1326 31.6706 54.8536 31.0481 54.4028 30.5972L50.8821 34.1179C51.3329 34.5688 51.9554 34.8478 52.6424 34.8478Z" fill="#594135"/>
</g>
<defs>
<clipPath id="clip0">
<rect width="85" height="85" fill="white"/>
</clipPath>
</defs>
</svg>
