<svg width="73" height="73" viewBox="0 0 73 73" fill="none" xmlns="http://www.w3.org/2000/svg">
<path d="M36.5 36.5941C17.2625 36.5941 1.61104 52.2457 1.61104 71.4831C1.61104 72.3204 2.29066 73 3.128 73C3.96534 73 4.64496 72.3204 4.64496 71.4831C4.64496 53.9172 18.9343 39.6279 36.5001 39.6279C54.066 39.6279 68.3553 53.9172 68.3553 71.4831C68.3553 72.3204 69.035 73 69.8723 73C70.7096 73 71.3893 72.3204 71.3893 71.4831C71.3891 52.2426 55.7376 36.5941 36.5 36.5941Z" fill="white"/>
<path d="M36.4998 0C27.3012 0 19.8138 7.4844 19.8138 16.686C19.8138 25.8876 27.3014 33.372 36.4998 33.372C45.6983 33.372 53.1859 25.8876 53.1859 16.686C53.1859 7.4844 45.6985 0 36.4998 0ZM36.4998 30.3382C28.9729 30.3382 22.8476 24.2129 22.8476 16.686C22.8476 9.15908 28.9729 3.03378 36.4998 3.03378C44.0268 3.03378 50.1521 9.15908 50.1521 16.686C50.1521 24.2129 44.0268 30.3382 36.4998 30.3382Z" fill="white"/>
</svg>
